# Blender v2.76 (sub 0) OBJ File: ''
# www.blender.org
mtllib MillObj.mtl
o Cylinder
v 0.000000 0.000000 0.000000
v 0.000000 2.200000 -0.507600
v 0.000000 0.000000 -1.000000
v 0.000000 2.000000 -0.600000
v 0.382683 0.000000 -0.923880
v 0.229610 2.000000 -0.554328
v 0.707107 0.000000 -0.707107
v 0.424264 2.000000 -0.424264
v 0.923880 0.000000 -0.382683
v 0.554328 2.000000 -0.229610
v 1.000000 0.000000 0.000000
v 0.600000 2.000000 0.000000
v 0.923880 0.000000 0.382684
v 0.554328 2.000000 0.229610
v 0.707107 0.000000 0.707107
v 0.424264 2.000000 0.424264
v 0.382683 0.000000 0.923880
v 0.229610 2.000000 0.554328
v 0.000000 0.000000 1.000000
v 0.000000 2.000000 0.600000
v -0.382683 0.000000 0.923880
v -0.229610 2.000000 0.554328
v -0.707107 0.000000 0.707107
v -0.424264 2.000000 0.424264
v -0.923880 0.000000 0.382684
v -0.554328 2.000000 0.229610
v -1.000000 0.000000 -0.000000
v -0.600000 2.000000 -0.000000
v -0.923879 0.000000 -0.382684
v -0.554328 2.000000 -0.229610
v -0.707107 0.000000 -0.707107
v -0.424264 2.000000 -0.424264
v -0.382683 0.000000 -0.923880
v -0.229610 2.000000 -0.554328
v 0.000000 2.100000 -0.564000
v 0.000000 2.300000 -0.406080
v 0.215834 2.100000 -0.521068
v 0.398808 2.100000 -0.398808
v 0.521068 2.100000 -0.215833
v 0.564000 2.100000 0.000000
v 0.521068 2.100000 0.215834
v 0.398808 2.100000 0.398808
v 0.215834 2.100000 0.521068
v 0.000000 2.100000 0.564000
v -0.215833 2.100000 0.521068
v -0.398808 2.100000 0.398808
v -0.521068 2.100000 0.215834
v -0.564000 2.100000 -0.000000
v -0.521068 2.100000 -0.215834
v -0.398808 2.100000 -0.398808
v -0.215833 2.100000 -0.521068
v 0.000000 2.400000 -0.243648
v 0.194250 2.200000 -0.468961
v 0.358927 2.200000 -0.358927
v 0.468961 2.200000 -0.194250
v 0.507600 2.200000 0.000000
v 0.468961 2.200000 0.194250
v 0.358927 2.200000 0.358927
v 0.194250 2.200000 0.468961
v 0.000000 2.200000 0.507600
v -0.194250 2.200000 0.468961
v -0.358927 2.200000 0.358928
v -0.468961 2.200000 0.194250
v -0.507600 2.200000 -0.000000
v -0.468961 2.200000 -0.194250
v -0.358927 2.200000 -0.358928
v -0.194250 2.200000 -0.468961
v 0.000000 2.450000 -0.024365
v 0.155400 2.300000 -0.375169
v 0.287142 2.300000 -0.287142
v 0.375169 2.300000 -0.155400
v 0.406080 2.300000 0.000000
v 0.375169 2.300000 0.155400
v 0.287142 2.300000 0.287142
v 0.155400 2.300000 0.375169
v 0.000000 2.300000 0.406080
v -0.155400 2.300000 0.375169
v -0.287142 2.300000 0.287142
v -0.375169 2.300000 0.155400
v -0.406080 2.300000 -0.000000
v -0.375169 2.300000 -0.155400
v -0.287142 2.300000 -0.287142
v -0.155400 2.300000 -0.375169
v 0.093240 2.400000 -0.225101
v 0.172285 2.400000 -0.172285
v 0.225101 2.400000 -0.093240
v 0.243648 2.400000 0.000000
v 0.225101 2.400000 0.093240
v 0.172285 2.400000 0.172285
v 0.093240 2.400000 0.225101
v 0.000000 2.400000 0.243648
v -0.093240 2.400000 0.225101
v -0.172285 2.400000 0.172285
v -0.225101 2.400000 0.093240
v -0.243648 2.400000 -0.000000
v -0.225101 2.400000 -0.093240
v -0.172285 2.400000 -0.172285
v -0.093240 2.400000 -0.225101
v 0.000000 2.450000 -0.000000
v 0.009324 2.450000 -0.022510
v 0.017229 2.450000 -0.017229
v 0.022510 2.450000 -0.009324
v 0.024365 2.450000 -0.000000
v 0.022510 2.450000 0.009324
v 0.017229 2.450000 0.017229
v 0.009324 2.450000 0.022510
v 0.000000 2.450000 0.024365
v -0.009324 2.450000 0.022510
v -0.017228 2.450000 0.017229
v -0.022510 2.450000 0.009324
v -0.024365 2.450000 -0.000000
v -0.022510 2.450000 -0.009324
v -0.017228 2.450000 -0.017229
v -0.009324 2.450000 -0.022510
vt 0.167414 0.610355
vt 0.134139 0.443070
vt 0.200689 0.443070
vt 0.350437 0.527219
vt 0.378114 0.489913
vt 0.392792 0.504474
vt 0.368458 0.536637
vt 0.500000 0.442813
vt 0.500000 0.094933
vt 0.539901 0.093405
vt 0.566501 0.440266
vt 0.262173 0.468538
vt 0.597455 0.526093
vt 0.606433 0.566826
vt 0.587906 0.568942
vt 0.579272 0.531382
vt 0.579568 0.088831
vt 0.632613 0.432643
vt 0.309231 0.515596
vt 0.595207 0.649717
vt 0.572351 0.685982
vt 0.558020 0.673593
vt 0.577963 0.642207
vt 0.618769 0.081237
vt 0.697948 0.419986
vt 0.334698 0.577080
vt 0.498692 0.729934
vt 0.454814 0.732312
vt 0.456834 0.713074
vt 0.494470 0.711188
vt 0.657275 0.070668
vt 0.762125 0.402371
vt 0.334698 0.643630
vt 0.375529 0.695104
vt 0.348793 0.659118
vt 0.366300 0.650000
vt 0.389063 0.680927
vt 0.694860 0.057185
vt 0.824766 0.379900
vt 0.309231 0.705114
vt 0.335529 0.570651
vt 0.355334 0.574004
vt 0.731304 0.040868
vt 0.885506 0.352705
vt 0.262173 0.752172
vt 0.415827 0.461598
vt 0.460240 0.443070
vt 0.467138 0.463883
vt 0.426316 0.480021
vt 0.766393 0.021812
vt 0.943988 0.320945
vt 0.200689 0.777640
vt 0.606433 0.608796
vt 0.587896 0.606382
vt 0.799923 0.000129
vt 0.999871 0.284806
vt 0.134139 0.777640
vt 0.539216 0.713797
vt 0.529349 0.697464
vt 0.000129 0.284806
vt 0.200077 0.000129
vt 0.233606 0.021812
vt 0.056012 0.320945
vt 0.072654 0.752172
vt 0.334956 0.616146
vt 0.354617 0.613093
vt 0.268696 0.040868
vt 0.114494 0.352705
vt 0.025596 0.705114
vt 0.305140 0.057185
vt 0.175234 0.379900
vt 0.000129 0.643630
vt 0.342725 0.070668
vt 0.237875 0.402371
vt 0.000129 0.577080
vt 0.381231 0.081237
vt 0.302052 0.419986
vt 0.025597 0.515596
vt 0.412216 0.720354
vt 0.420387 0.702681
vt 0.420432 0.088831
vt 0.367387 0.432643
vt 0.072655 0.468538
vt 0.460099 0.093405
vt 0.433499 0.440266
vt 0.436654 0.499161
vt 0.407446 0.519348
vt 0.560543 0.634673
vt 0.568925 0.604033
vt 0.458849 0.693991
vt 0.490280 0.692561
vt 0.375053 0.577426
vt 0.374158 0.610112
vt 0.473060 0.486719
vt 0.543662 0.661200
vt 0.428500 0.685169
vt 0.386437 0.546188
vt 0.402495 0.666890
vt 0.568546 0.571477
vt 0.559632 0.538090
vt 0.519517 0.681189
vt 0.383681 0.640985
vt 0.477122 0.515315
vt 0.447840 0.522645
vt 0.526837 0.646638
vt 0.539892 0.625830
vt 0.438056 0.664936
vt 0.461331 0.671862
vt 0.407271 0.557781
vt 0.397973 0.581745
vt 0.418200 0.650747
vt 0.544858 0.575452
vt 0.535597 0.548922
vt 0.508121 0.662155
vt 0.403942 0.630722
vt 0.424225 0.537401
vt 0.546108 0.601527
vt 0.485528 0.670875
vt 0.396902 0.606908
vt 0.493198 0.637022
vt 0.504452 0.627433
vt 0.430674 0.617859
vt 0.439070 0.630026
vt 0.444881 0.562445
vt 0.433977 0.574128
vt 0.515162 0.599380
vt 0.513030 0.583384
vt 0.479540 0.642366
vt 0.426733 0.603455
vt 0.459746 0.554820
vt 0.512083 0.614499
vt 0.464929 0.642941
vt 0.427806 0.588335
vt 0.477348 0.552742
vt 0.450930 0.638684
vt 0.505140 0.567938
vt 0.465640 0.600423
vt 0.466090 0.602040
vt 0.469309 0.595219
vt 0.467693 0.595948
vt 0.475192 0.601485
vt 0.475439 0.599823
vt 0.470003 0.604818
vt 0.471655 0.604716
vt 0.465766 0.598737
vt 0.471118 0.595137
vt 0.474406 0.602954
vt 0.468408 0.604365
vt 0.466470 0.597180
vt 0.467051 0.603404
vt 0.475097 0.598154
vt 0.474168 0.596682
vt 0.473180 0.604072
vt 0.610767 0.447146
vt 0.614842 0.446335
vt 0.614842 0.447957
vt 0.614222 0.444837
vt 0.613075 0.443691
vt 0.611577 0.443070
vt 0.609956 0.443070
vt 0.608458 0.443691
vt 0.607311 0.444837
vt 0.606691 0.446335
vt 0.606691 0.447957
vt 0.607311 0.449455
vt 0.608458 0.450602
vt 0.609956 0.451222
vt 0.611577 0.451222
vt 0.613075 0.450602
vt 0.614222 0.449455
vn 0.000000 -1.000000 0.000000
vn -0.784000 0.332900 0.523900
vn 0.191400 0.192500 -0.962400
vn 0.184000 0.332900 0.924800
vn 0.545200 0.192500 -0.815900
vn 0.924800 0.332900 0.184000
vn 0.815900 0.192500 -0.545200
vn 0.523900 0.332900 -0.784000
vn 0.962400 0.192500 -0.191400
vn -0.523900 0.332900 -0.784000
vn 0.962400 0.192500 0.191400
vn -0.924800 0.332900 0.184000
vn 0.815900 0.192500 0.545200
vn -0.184000 0.332900 0.924800
vn 0.545200 0.192500 0.815900
vn 0.784000 0.332900 0.523900
vn 0.191400 0.192500 0.962400
vn 0.784000 0.332900 -0.523900
vn -0.191400 0.192500 0.962400
vn -0.924800 0.332900 -0.184000
vn -0.545200 0.192500 0.815900
vn -0.523900 0.332900 0.784000
vn -0.815900 0.192500 0.545200
vn 0.523900 0.332900 0.784000
vn -0.962400 0.192500 0.191400
vn 0.924800 0.332900 -0.184000
vn -0.962400 0.192500 -0.191400
vn 0.184000 0.332900 -0.924800
vn -0.815900 0.192500 -0.545200
vn -0.184000 0.332900 -0.924800
vn -0.545200 0.192500 -0.815900
vn -0.784000 0.332900 -0.523900
vn -0.191400 0.192500 -0.962400
vn -0.486100 0.484000 0.727600
vn 0.727600 0.484000 0.486100
vn 0.486100 0.484000 -0.727600
vn -0.858200 0.484000 -0.170700
vn -0.170700 0.484000 0.858200
vn 0.858200 0.484000 0.170700
vn 0.170700 0.484000 -0.858200
vn -0.858200 0.484000 0.170700
vn -0.170700 0.484000 -0.858200
vn 0.170700 0.484000 0.858200
vn 0.858200 0.484000 -0.170700
vn -0.486100 0.484000 -0.727600
vn -0.727600 0.484000 0.486100
vn 0.486100 0.484000 0.727600
vn 0.727600 0.484000 -0.486100
vn -0.727600 0.484000 -0.486100
vn -0.138200 0.705600 0.695000
vn 0.695000 0.705600 0.138200
vn 0.138200 0.705600 -0.695000
vn -0.695000 0.705600 0.138200
vn -0.138200 0.705600 -0.695000
vn 0.138200 0.705600 0.695000
vn 0.695000 0.705600 -0.138200
vn -0.393700 0.705600 -0.589200
vn -0.589200 0.705600 0.393700
vn 0.393700 0.705600 0.589200
vn 0.589200 0.705600 -0.393700
vn -0.589200 0.705600 -0.393700
vn -0.393700 0.705600 0.589200
vn 0.589200 0.705600 0.393700
vn 0.393700 0.705600 -0.589200
vn -0.695000 0.705600 -0.138200
vn 0.521400 0.847000 -0.103700
vn -0.295400 0.847000 -0.442000
vn -0.442000 0.847000 0.295400
vn 0.295400 0.847000 0.442000
vn 0.442000 0.847000 -0.295400
vn -0.442000 0.847000 -0.295400
vn -0.295400 0.847000 0.442000
vn 0.442000 0.847000 0.295400
vn 0.295400 0.847000 -0.442000
vn -0.521400 0.847000 -0.103700
vn -0.103700 0.847000 0.521400
vn 0.521400 0.847000 0.103700
vn 0.103700 0.847000 -0.521400
vn -0.521400 0.847000 0.103700
vn -0.103700 0.847000 -0.521400
vn 0.103700 0.847000 0.521400
vn -0.188300 0.974000 -0.125800
vn -0.125800 0.974000 0.188300
vn 0.188300 0.974000 0.125800
vn 0.125800 0.974000 -0.188300
vn -0.222100 0.974000 -0.044200
vn -0.044200 0.974000 0.222100
vn 0.222100 0.974000 0.044200
vn 0.044200 0.974000 -0.222100
vn -0.222100 0.974000 0.044200
vn -0.044200 0.974000 -0.222100
vn 0.044200 0.974000 0.222100
vn 0.222100 0.974000 -0.044200
vn -0.125800 0.974000 -0.188300
vn -0.188300 0.974000 0.125800
vn 0.125800 0.974000 0.188300
vn 0.188300 0.974000 -0.125800
vn 0.000000 1.000000 0.000000
usemtl None
s off
f 1/1/1 3/2/1 5/3/1
f 26/4/2 24/5/2 46/6/2 47/7/2
f 3/8/3 4/9/3 6/10/3 5/11/3
f 1/1/1 5/3/1 7/12/1
f 20/13/4 18/14/4 43/15/4 44/16/4
f 5/11/5 6/10/5 8/17/5 7/18/5
f 1/1/1 7/12/1 9/19/1
f 14/20/6 12/21/6 40/22/6 41/23/6
f 7/18/7 8/17/7 10/24/7 9/25/7
f 1/1/1 9/19/1 11/26/1
f 8/27/8 6/28/8 37/29/8 38/30/8
f 9/25/9 10/24/9 12/31/9 11/32/9
f 1/1/1 11/26/1 13/33/1
f 34/34/10 32/35/10 50/36/10 51/37/10
f 11/32/11 12/31/11 14/38/11 13/39/11
f 1/1/1 13/33/1 15/40/1
f 28/41/12 26/4/12 47/7/12 48/42/12
f 13/39/13 14/38/13 16/43/13 15/44/13
f 1/1/1 15/40/1 17/45/1
f 22/46/14 20/47/14 44/48/14 45/49/14
f 15/44/15 16/43/15 18/50/15 17/51/15
f 1/1/1 17/45/1 19/52/1
f 16/53/16 14/20/16 41/23/16 42/54/16
f 17/51/17 18/50/17 20/55/17 19/56/17
f 1/1/1 19/52/1 21/57/1
f 10/58/18 8/27/18 38/30/18 39/59/18
f 19/60/19 20/61/19 22/62/19 21/63/19
f 1/1/1 21/57/1 23/64/1
f 30/65/20 28/41/20 48/42/20 49/66/20
f 21/63/21 22/62/21 24/67/21 23/68/21
f 1/1/1 23/64/1 25/69/1
f 24/5/22 22/46/22 45/49/22 46/6/22
f 23/68/23 24/67/23 26/70/23 25/71/23
f 1/1/1 25/69/1 27/72/1
f 18/14/24 16/53/24 42/54/24 43/15/24
f 25/71/25 26/70/25 28/73/25 27/74/25
f 1/1/1 27/72/1 29/75/1
f 12/21/26 10/58/26 39/59/26 40/22/26
f 27/74/27 28/73/27 30/76/27 29/77/27
f 1/1/1 29/75/1 31/78/1
f 6/28/28 4/79/28 35/80/28 37/29/28
f 29/77/29 30/76/29 32/81/29 31/82/29
f 1/1/1 31/78/1 33/83/1
f 4/79/30 34/34/30 51/37/30 35/80/30
f 31/82/31 32/81/31 34/84/31 33/85/31
f 1/1/1 33/83/1 3/2/1
f 32/35/32 30/65/32 49/66/32 50/36/32
f 33/85/33 34/84/33 4/9/33 3/8/33
f 46/6/34 45/49/34 61/86/34 62/87/34
f 42/54/35 41/23/35 57/88/35 58/89/35
f 38/30/36 37/29/36 53/90/36 54/91/36
f 49/66/37 48/42/37 64/92/37 65/93/37
f 45/49/38 44/48/38 60/94/38 61/86/38
f 41/23/39 40/22/39 56/95/39 57/88/39
f 37/29/40 35/80/40 2/96/40 53/90/40
f 48/42/41 47/7/41 63/97/41 64/92/41
f 35/80/42 51/37/42 67/98/42 2/96/42
f 44/16/43 43/15/43 59/99/43 60/100/43
f 40/22/44 39/59/44 55/101/44 56/95/44
f 51/37/45 50/36/45 66/102/45 67/98/45
f 47/7/46 46/6/46 62/87/46 63/97/46
f 43/15/47 42/54/47 58/89/47 59/99/47
f 39/59/48 38/30/48 54/91/48 55/101/48
f 50/36/49 49/66/49 65/93/49 66/102/49
f 61/86/50 60/94/50 76/103/50 77/104/50
f 57/88/51 56/95/51 72/105/51 73/106/51
f 53/90/52 2/96/52 36/107/52 69/108/52
f 64/92/53 63/97/53 79/109/53 80/110/53
f 2/96/54 67/98/54 83/111/54 36/107/54
f 60/100/55 59/99/55 75/112/55 76/113/55
f 56/95/56 55/101/56 71/114/56 72/105/56
f 67/98/57 66/102/57 82/115/57 83/111/57
f 63/97/58 62/87/58 78/116/58 79/109/58
f 59/99/59 58/89/59 74/117/59 75/112/59
f 55/101/60 54/91/60 70/118/60 71/114/60
f 66/102/61 65/93/61 81/119/61 82/115/61
f 62/87/62 61/86/62 77/104/62 78/116/62
f 58/89/63 57/88/63 73/106/63 74/117/63
f 54/91/64 53/90/64 69/108/64 70/118/64
f 65/93/65 64/92/65 80/110/65 81/119/65
f 72/105/66 71/114/66 86/120/66 87/121/66
f 83/111/67 82/115/67 97/122/67 98/123/67
f 79/109/68 78/116/68 93/124/68 94/125/68
f 75/112/69 74/117/69 89/126/69 90/127/69
f 71/114/70 70/118/70 85/128/70 86/120/70
f 82/115/71 81/119/71 96/129/71 97/122/71
f 78/116/72 77/104/72 92/130/72 93/124/72
f 74/117/73 73/106/73 88/131/73 89/126/73
f 70/118/74 69/108/74 84/132/74 85/128/74
f 81/119/75 80/110/75 95/133/75 96/129/75
f 77/104/76 76/103/76 91/134/76 92/130/76
f 73/106/77 72/105/77 87/121/77 88/131/77
f 69/108/78 36/107/78 52/135/78 84/132/78
f 80/110/79 79/109/79 94/125/79 95/133/79
f 36/107/80 83/111/80 98/123/80 52/135/80
f 76/113/81 75/112/81 90/127/81 91/136/81
f 97/122/82 96/129/82 112/137/82 113/138/82
f 93/124/83 92/130/83 108/139/83 109/140/83
f 89/126/84 88/131/84 104/141/84 105/142/84
f 85/128/85 84/132/85 100/143/85 101/144/85
f 96/129/86 95/133/86 111/145/86 112/137/86
f 92/130/87 91/134/87 107/146/87 108/139/87
f 88/131/88 87/121/88 103/147/88 104/141/88
f 84/132/89 52/135/89 68/148/89 100/143/89
f 95/133/90 94/125/90 110/149/90 111/145/90
f 52/135/91 98/123/91 114/150/91 68/148/91
f 91/136/92 90/127/92 106/151/92 107/152/92
f 87/121/93 86/120/93 102/153/93 103/147/93
f 98/123/94 97/122/94 113/138/94 114/150/94
f 94/125/95 93/124/95 109/140/95 110/149/95
f 90/127/96 89/126/96 105/142/96 106/151/96
f 86/120/97 85/128/97 101/144/97 102/153/97
f 99/154/98 100/155/98 68/156/98
f 99/154/98 101/157/98 100/155/98
f 99/154/98 102/158/98 101/157/98
f 99/154/98 103/159/98 102/158/98
f 99/154/98 104/160/98 103/159/98
f 99/154/98 105/161/98 104/160/98
f 99/154/98 106/162/98 105/161/98
f 99/154/98 107/163/98 106/162/98
f 99/154/98 108/164/98 107/163/98
f 99/154/98 109/165/98 108/164/98
f 99/154/98 110/166/98 109/165/98
f 99/154/98 111/167/98 110/166/98
f 99/154/98 112/168/98 111/167/98
f 99/154/98 113/169/98 112/168/98
f 99/154/98 114/170/98 113/169/98
f 99/154/98 68/156/98 114/170/98
