# Blender v2.76 (sub 0) OBJ File: ''
# www.blender.org
mtllib Boat.mtl
o Cube.001_Cube.002
v -0.748543 -0.014885 -0.313612
v -0.773954 0.399047 -0.222210
v -0.748543 -0.014885 -0.979218
v -0.773954 0.399047 -1.070619
v 0.533821 -0.014885 -0.613134
v 0.653023 0.399047 -0.603994
v 0.533821 -0.014885 -0.679695
v 0.653023 0.399047 -0.688835
v -0.716883 0.399047 -0.270630
v -0.716883 0.399047 -1.022200
v 0.595952 0.399047 -0.683993
v 0.595952 0.399047 -0.608836
v -0.600869 0.062892 -0.324908
v -0.600869 0.062892 -0.967921
v 0.522340 0.062892 -0.678565
v 0.522340 0.062892 -0.614264
v -0.773954 0.399047 -0.505013
v -0.773954 0.399047 -0.787816
v -0.748543 -0.014885 -0.757349
v -0.748543 -0.014885 -0.535480
v 0.653023 0.399047 -0.660555
v 0.653023 0.399047 -0.632275
v 0.533821 -0.014885 -0.635321
v 0.533821 -0.014885 -0.657508
v -0.716883 0.399047 -0.521153
v -0.716883 0.399047 -0.771676
v 0.595952 0.399047 -0.658941
v 0.595952 0.399047 -0.633889
v -0.600869 0.062892 -0.539246
v -0.600869 0.062892 -0.753584
v 0.522340 0.062892 -0.657132
v 0.522340 0.062892 -0.635698
v 0.296507 0.399047 -0.981700
v 0.544101 0.399047 -0.859514
v 0.448368 -0.014885 -0.813599
v 0.254122 -0.014885 -0.909458
v 0.544101 0.399047 -0.433316
v 0.296507 0.399047 -0.311129
v 0.254122 -0.014885 -0.383372
v 0.448368 -0.014885 -0.479231
v 0.266315 0.399047 -0.943430
v 0.493422 0.399047 -0.835190
v 0.493422 0.399047 -0.457639
v 0.266315 0.399047 -0.349399
v 0.240315 0.062892 -0.900529
v 0.434619 0.062892 -0.807924
v 0.434619 0.062892 -0.484906
v 0.240315 0.062892 -0.392300
v 0.493422 0.062892 -0.583490
v 0.266315 0.062892 -0.547410
v 0.493422 0.062892 -0.709340
v 0.266315 0.062892 -0.745420
v 0.296507 -0.014885 -0.534653
v 0.469720 -0.014885 -0.575382
v 0.296507 -0.014885 -0.758177
v 0.469720 -0.014885 -0.717448
v -0.773954 0.192081 -0.276573
v -0.773954 0.192081 -1.016256
v 0.653023 0.192081 -0.683399
v 0.653023 0.192081 -0.609431
v 0.653023 0.192081 -0.658743
v 0.653023 0.192081 -0.634087
v -0.773954 0.192081 -0.523134
v -0.773954 0.192081 -0.769695
v 0.544101 0.192081 -0.460625
v 0.296507 0.192081 -0.354097
v 0.296507 0.192081 -0.938732
v 0.544101 0.192081 -0.832205
v 0.595952 0.230969 -0.679177
v 0.595952 0.230969 -0.613652
v -0.716883 0.230969 -0.318788
v -0.716883 0.230969 -0.974042
v -0.716883 0.230969 -0.755624
v -0.716883 0.230969 -0.537206
v 0.595952 0.230969 -0.635494
v 0.595952 0.230969 -0.657336
v 0.493422 0.230969 -0.810998
v 0.266315 0.230969 -0.905367
v 0.266315 0.230969 -0.387463
v 0.493422 0.230969 -0.481831
vt 0.575101 0.928048
vt 0.659852 0.928048
vt 0.647121 0.999723
vt 0.570857 0.999723
vt 0.691656 0.394406
vt 0.635339 0.403491
vt 0.634573 0.325504
vt 0.691797 0.315349
vt 0.619542 0.403477
vt 0.611647 0.403482
vt 0.612410 0.325512
vt 0.619798 0.325490
vt 0.764422 0.660319
vt 0.402105 0.590853
vt 0.425150 0.521800
vt 0.764422 0.587008
vt 0.419033 0.382435
vt 0.411693 0.349385
vt 0.441066 0.395412
vt 0.441066 0.403038
vt 0.490779 0.150951
vt 0.490779 0.160671
vt 0.471162 0.159007
vt 0.471162 0.150396
vt 0.658692 0.202343
vt 0.665784 0.202334
vt 0.665952 0.262910
vt 0.658748 0.262934
vt 0.000277 0.097486
vt 0.000277 0.000277
vt 0.019894 0.016920
vt 0.019894 0.103033
vt 0.453340 0.072843
vt 0.490779 0.131509
vt 0.471162 0.133174
vt 0.435920 0.081204
vt 0.368237 0.261337
vt 0.000278 0.291903
vt 0.019895 0.275259
vt 0.357859 0.248182
vt 0.298355 0.666343
vt 0.289419 0.719659
vt 0.000277 0.742824
vt 0.000277 0.669149
vt 0.818054 0.802221
vt 0.742977 0.802221
vt 0.745081 0.732022
vt 0.818756 0.732022
vt 0.591540 0.209350
vt 0.644504 0.202327
vt 0.644339 0.262918
vt 0.588947 0.271003
vt 0.339262 0.801056
vt 0.000522 0.806270
vt 0.039555 0.747885
vt 0.329589 0.743377
vt 0.968209 0.802221
vt 0.893132 0.802221
vt 0.892430 0.732022
vt 0.966105 0.732022
vt 0.289419 0.544964
vt 0.298355 0.598280
vt 0.000277 0.595474
vt 0.000277 0.521800
vt 0.000277 0.194694
vt 0.019894 0.189146
vt 0.651596 0.202335
vt 0.651544 0.262941
vt 0.490779 0.141230
vt 0.471162 0.141785
vt 0.411693 0.464318
vt 0.419033 0.431268
vt 0.441066 0.410664
vt 0.441066 0.418291
vt 0.627443 0.403487
vt 0.627185 0.325482
vt 0.405599 0.928048
vt 0.490350 0.928048
vt 0.494594 0.999723
vt 0.418330 0.999723
vt 0.000277 0.444983
vt 0.000277 0.368720
vt 0.359494 0.368435
vt 0.359494 0.445267
vt 0.000277 0.521246
vt 0.344924 0.497268
vt 0.386359 0.628628
vt 0.386359 0.635996
vt 0.376420 0.653941
vt 0.376420 0.610682
vt 0.386359 0.621261
vt 0.356207 0.576796
vt 0.718749 0.209347
vt 0.721342 0.270999
vt 0.801445 0.227928
vt 0.795613 0.287846
vt 0.386913 0.792120
vt 0.725629 0.798715
vt 0.715720 0.856354
vt 0.425708 0.850663
vt 0.508850 0.227931
vt 0.514679 0.287846
vt 0.386359 0.643363
vt 0.356207 0.687828
vt 0.453340 0.219338
vt 0.435921 0.210977
vt 0.368237 0.030841
vt 0.357858 0.043996
vt 0.000277 0.292456
vt 0.344924 0.316435
vt 0.555327 0.394411
vt 0.555187 0.315354
vt 0.466679 0.368211
vt 0.480421 0.292456
vt 0.492668 0.073819
vt 0.861584 0.073987
vt 0.847747 0.145980
vt 0.502265 0.145980
vt 0.780295 0.368204
vt 0.766557 0.292456
vt 0.805351 0.438772
vt 0.710605 0.463075
vt 0.491333 0.000277
vt 0.860550 0.001336
vt 0.536381 0.463097
vt 0.441620 0.438791
vt 0.608707 0.471606
vt 0.484121 0.856908
vt 0.581330 0.856908
vt 0.386913 0.856908
vt 0.628302 0.471702
vt 0.618712 0.471716
vt 0.638303 0.471588
vt 0.749694 0.731468
vt 0.386913 0.662821
vt 0.678538 0.856908
vt 0.491333 0.170067
vt 0.577854 0.152637
vt 0.386913 0.732022
vt 0.725870 0.739479
vt 0.732434 0.152624
vt 0.818965 0.170058
vt 0.668190 0.146617
vt 0.650883 0.146544
vt 0.659387 0.146534
vt 0.642083 0.146630
vt 0.898649 0.859995
vt 0.812537 0.859995
vt 0.984762 0.859995
vt 0.339262 0.860292
vt 0.000277 0.866368
vt 0.726424 0.859995
vn -0.992500 -0.121900 0.000000
vn 0.749100 -0.416700 -0.515000
vn 0.866500 -0.499100 0.000000
vn 0.069900 -0.160600 0.984500
vn 0.000000 -1.000000 0.000000
vn 0.000000 1.000000 0.000000
vn -0.916000 0.401200 0.000000
vn 0.823000 0.568100 0.000000
vn -0.768700 0.309000 -0.560000
vn -0.074400 0.012600 0.997200
vn 0.866600 -0.499100 0.000000
vn -0.768700 0.309000 0.560000
vn -0.402500 0.122900 0.907100
vn -0.074400 0.012600 -0.997200
vn -0.402500 0.122900 -0.907100
vn 0.749100 -0.416700 0.515000
vn 0.404600 -0.237200 0.883200
vn 0.069900 -0.160600 -0.984500
vn 0.404600 -0.237200 -0.883200
vn 0.414400 -0.152300 -0.897200
vn 0.075500 -0.228200 -0.970700
vn 0.414400 -0.152300 0.897200
vn 0.825400 -0.044500 0.562800
vn -1.000000 0.000000 0.000000
vn 1.000000 -0.000000 0.000000
vn 0.075500 -0.228200 0.970700
vn 0.825400 -0.044500 -0.562800
vn -0.401700 0.166800 -0.900500
vn -0.072400 0.247800 -0.966100
vn -0.401700 0.166800 0.900500
vn -0.808700 0.050600 0.586000
vn -0.072400 0.247800 0.966100
vn -0.808700 0.050600 -0.586000
usemtl None
s off
f 64/1/1 58/2/1 3/3/1 19/4/1
f 68/5/2 59/6/2 7/7/2 35/8/2
f 62/9/3 60/10/3 5/11/3 23/12/3
f 66/13/4 57/14/4 1/15/4 39/16/4
f 56/17/5 35/18/5 7/19/5 24/20/5
f 21/21/6 8/22/6 11/23/6 27/24/6
f 76/25/7 69/26/7 15/27/7 31/28/7
f 17/29/6 2/30/6 9/31/6 25/32/6
f 37/33/6 6/34/6 12/35/6 43/36/6
f 33/37/6 4/38/6 10/39/6 41/40/6
f 52/41/6 45/42/6 14/43/6 30/44/6
f 74/45/8 71/46/8 13/47/8 29/48/8
f 80/49/9 70/50/9 16/51/9 47/52/9
f 78/53/10 72/54/10 14/55/10 45/56/10
f 72/57/8 73/58/8 30/59/8 14/60/8
f 73/58/8 74/45/8 29/48/8 30/59/8
f 48/61/6 50/62/6 29/63/6 13/64/6
f 50/62/6 52/41/6 30/44/6 29/63/6
f 4/38/6 18/65/6 26/66/6 10/39/6
f 18/65/6 17/29/6 25/32/6 26/66/6
f 70/50/7 75/67/7 32/68/7 16/51/7
f 75/67/7 76/25/7 31/28/7 32/68/7
f 6/34/6 22/69/6 28/70/6 12/35/6
f 22/69/6 21/21/6 27/24/6 28/70/6
f 40/71/5 54/72/5 23/73/5 5/74/5
f 54/72/5 56/17/5 24/20/5 23/73/5
f 59/6/3 61/75/3 24/76/3 7/7/3
f 61/75/11 62/9/11 23/12/11 24/76/11
f 57/77/1 63/78/1 20/79/1 1/80/1
f 63/78/1 64/1/1 19/4/1 20/79/1
f 20/81/5 19/82/5 55/83/5 53/84/5
f 53/84/5 55/83/5 56/17/5 54/72/5
f 1/85/5 20/81/5 53/84/5 39/86/5
f 39/86/5 53/84/5 54/72/5 40/71/5
f 32/87/6 31/88/6 51/89/6 49/90/6
f 49/90/6 51/89/6 52/41/6 50/62/6
f 16/91/6 32/87/6 49/90/6 47/92/6
f 47/92/6 49/90/6 50/62/6 48/61/6
f 69/26/12 77/93/12 46/94/12 15/27/12
f 77/93/13 78/95/13 45/96/13 46/94/13
f 71/97/14 79/98/14 48/99/14 13/100/14
f 79/101/15 80/49/15 47/52/15 48/102/15
f 31/88/6 15/103/6 46/104/6 51/89/6
f 51/89/6 46/104/6 45/42/6 52/41/6
f 8/22/6 34/105/6 42/106/6 11/23/6
f 34/105/6 33/37/6 41/40/6 42/106/6
f 2/30/6 38/107/6 44/108/6 9/31/6
f 38/107/6 37/33/6 43/36/6 44/108/6
f 19/82/5 3/109/5 36/110/5 55/83/5
f 55/83/5 36/110/5 35/18/5 56/17/5
f 60/10/16 65/111/16 40/112/16 5/11/16
f 65/111/17 66/113/17 39/114/17 40/112/17
f 58/115/18 67/116/18 36/117/18 3/118/18
f 67/119/19 68/5/19 35/8/19 36/120/19
f 33/121/20 34/122/20 68/5/20 67/119/20
f 4/123/21 33/124/21 67/116/21 58/115/21
f 37/125/22 38/126/22 66/113/22 65/111/22
f 6/127/23 37/125/23 65/111/23 60/10/23
f 17/128/24 18/129/24 64/1/24 63/78/24
f 2/130/24 17/128/24 63/78/24 57/77/24
f 21/131/25 22/132/25 62/9/25 61/75/25
f 8/133/25 21/131/25 61/75/25 59/6/25
f 38/134/26 2/135/26 57/14/26 66/13/26
f 22/132/25 6/127/25 60/10/25 62/9/25
f 34/122/27 8/133/27 59/6/27 68/5/27
f 18/129/24 4/136/24 58/2/24 64/1/24
f 44/137/28 43/138/28 80/49/28 79/101/28
f 9/139/29 44/140/29 79/98/29 71/97/29
f 42/141/30 41/142/30 78/95/30 77/93/30
f 11/143/31 42/141/31 77/93/31 69/26/31
f 28/144/24 27/145/24 76/25/24 75/67/24
f 12/146/24 28/144/24 75/67/24 70/50/24
f 26/147/25 25/148/25 74/45/25 73/58/25
f 10/149/25 26/147/25 73/58/25 72/57/25
f 41/150/32 10/151/32 72/54/32 78/53/32
f 43/138/33 12/146/33 70/50/33 80/49/33
f 25/148/25 9/152/25 71/46/25 74/45/25
f 27/145/24 11/143/24 69/26/24 76/25/24
