# Blender v2.77 (sub 0) OBJ File: ''
# www.blender.org
mtllib ConstructionBuilding.mtl
o Cube_Cube.001
v -0.426006 0.506378 0.350197
v -0.426006 0.506378 0.300197
v -0.426006 -0.025000 0.300197
v -0.426006 -0.025000 0.350197
v -0.376006 0.506378 0.300197
v -0.376006 -0.025000 0.300197
v -0.376006 0.506378 0.350197
v -0.376006 -0.025000 0.350197
v -0.426006 0.556378 0.350197
v -0.426006 0.556378 0.300197
v -0.426006 0.856378 -0.049803
v -0.426006 0.806378 -0.049803
v -0.376006 0.556378 0.350197
v -0.426006 0.506378 -0.399803
v -0.376006 0.506378 -0.399803
v -0.376006 0.556378 0.300197
v 0.323994 0.556378 0.350197
v 0.323994 0.556378 0.300197
v 0.323994 0.506378 0.300197
v 0.323994 0.556378 -0.399803
v 0.323994 0.506378 -0.399803
v 0.323994 0.506378 0.350197
v 0.373994 0.506378 0.350197
v 0.373994 0.506378 0.300197
v 0.373994 0.556378 0.300197
v 0.373994 0.556378 0.350197
v 0.323994 0.856378 -0.049803
v 0.323994 0.806378 -0.049803
v 0.373994 0.006378 0.350197
v 0.373994 0.006378 0.300197
v -0.376006 0.556378 -0.399803
v 0.373994 0.556378 -0.399803
v 0.373994 0.506378 -0.399803
v 0.323994 0.506378 -0.449803
v 0.323994 0.556378 -0.449803
v 0.373994 0.556378 -0.449803
v 0.373994 0.506378 -0.449803
v 0.373994 0.006378 -0.449803
v 0.323994 0.006378 -0.449803
v 0.373994 0.856378 -0.049803
v -0.376006 0.806378 -0.049803
v -0.376006 0.856378 -0.049803
v -0.376006 0.556378 -0.449803
v -0.376006 0.506378 -0.449803
v -0.426006 0.556378 -0.399803
v -0.426006 0.556378 -0.449803
v -0.426006 0.506378 -0.449803
v -0.376006 0.506378 -0.449803
v -0.426006 0.506378 -0.449803
v -0.376006 0.506378 -0.399803
v -0.426006 0.506378 -0.399803
v -0.426006 0.006378 -0.399803
v -0.376006 0.006378 -0.399803
v -0.376006 0.006378 -0.449803
v -0.426006 0.006378 -0.449803
v 0.373994 0.006378 -0.399803
v 0.323994 0.006378 -0.399803
v 0.323994 0.006378 0.350197
v 0.323994 0.006378 0.300197
v 0.373994 0.806378 -0.049803
vt 0.5713 0.3792
vt 0.5356 0.3792
vt 0.5356 0.0003
vt 0.5713 0.0003
vt 0.5000 0.3792
vt 0.5000 0.0003
vt 0.6426 0.3792
vt 0.6069 0.3792
vt 0.6069 0.0003
vt 0.6426 0.0003
vt 0.2792 0.5025
vt 0.3148 0.5025
vt 0.3148 0.5382
vt 0.2792 0.5382
vt 0.4236 0.4663
vt 0.4236 0.5019
vt 0.3880 0.5019
vt 0.3880 0.4663
vt 0.6717 0.6935
vt 0.6432 0.6721
vt 0.9997 0.6721
vt 0.9783 0.7006
vt 0.4605 0.4663
vt 0.4962 0.4663
vt 0.4962 0.5019
vt 0.4605 0.5019
vt 0.0003 0.1429
vt 0.0003 0.1073
vt 0.4994 0.1073
vt 0.4994 0.1429
vt 0.0003 0.2505
vt 0.0003 0.2148
vt 0.4994 0.2148
vt 0.4994 0.2505
vt 0.0003 0.4293
vt 0.0003 0.3937
vt 0.4994 0.3937
vt 0.4994 0.4293
vt 0.0003 0.2861
vt 0.4994 0.2861
vt 0.0003 0.1792
vt 0.0003 0.1435
vt 0.4994 0.1435
vt 0.4994 0.1792
vt 0.3148 0.4300
vt 0.3504 0.4300
vt 0.3504 0.4656
vt 0.3148 0.4656
vt 0.5285 0.9870
vt 0.5000 0.9656
vt 0.8565 0.9656
vt 0.8351 0.9941
vt 0.2792 0.4656
vt 0.2792 0.4300
vt 0.6069 0.7362
vt 0.5713 0.7362
vt 0.5713 0.3798
vt 0.6069 0.3798
vt 0.2088 0.4300
vt 0.1435 0.5089
vt 0.2750 0.4460
vt 0.2748 0.5678
vt 0.0003 0.3580
vt 0.4994 0.3580
vt 0.0003 0.3224
vt 0.0003 0.2868
vt 0.4994 0.2868
vt 0.4994 0.3224
vt 0.3154 0.4663
vt 0.3511 0.4663
vt 0.3511 0.5019
vt 0.3154 0.5019
vt 0.7502 0.3568
vt 0.7145 0.3568
vt 0.7145 0.0003
vt 0.7502 0.0003
vt 0.3511 0.4656
vt 0.3511 0.4300
vt 0.3867 0.4300
vt 0.3867 0.4656
vt 0.5000 0.9300
vt 0.8565 0.9300
vt 0.6432 0.6364
vt 0.6717 0.6151
vt 0.9783 0.6079
vt 0.9997 0.6364
vt 0.2133 0.5838
vt 0.1472 0.4460
vt 0.2785 0.5048
vt 0.1470 0.5678
vt 0.4599 0.4656
vt 0.4599 0.4300
vt 0.4956 0.4300
vt 0.4956 0.4656
vt 0.0003 0.0003
vt 0.4994 0.0003
vt 0.4994 0.0360
vt 0.0003 0.0360
vt 0.3517 0.5025
vt 0.3760 0.5025
vt 0.3760 0.5030
vt 0.3517 0.5030
vt 0.4230 0.4300
vt 0.4230 0.4656
vt 0.3874 0.4656
vt 0.3874 0.4300
vt 0.4994 0.0716
vt 0.0003 0.0716
vt 0.1429 0.7864
vt 0.1073 0.7864
vt 0.1073 0.4300
vt 0.1429 0.4300
vt 0.3766 0.5025
vt 0.4009 0.5025
vt 0.4009 0.5030
vt 0.3766 0.5030
vt 0.3511 0.5030
vt 0.3268 0.5030
vt 0.3268 0.5025
vt 0.3511 0.5025
vt 0.4258 0.5030
vt 0.4015 0.5030
vt 0.4015 0.5025
vt 0.4258 0.5025
vt 0.3874 0.4663
vt 0.3874 0.5019
vt 0.3517 0.5019
vt 0.3517 0.4663
vt 0.0360 0.7864
vt 0.0003 0.7864
vt 0.0003 0.4300
vt 0.0360 0.4300
vt 0.0716 0.7864
vt 0.0716 0.4300
vt 0.4243 0.5019
vt 0.4243 0.4663
vt 0.4599 0.4663
vt 0.4599 0.5019
vt 0.6789 0.3568
vt 0.6432 0.3568
vt 0.6432 0.0003
vt 0.6789 0.0003
vt 0.7858 0.3568
vt 0.7858 0.0003
vt 0.2792 0.4663
vt 0.3148 0.4663
vt 0.3148 0.5019
vt 0.2792 0.5019
vt 0.5356 0.7362
vt 0.5356 0.3798
vt 0.6426 0.7362
vt 0.6426 0.3798
vt 0.5000 0.7362
vt 0.5000 0.3798
vt 0.5285 0.9086
vt 0.5277 0.8730
vt 0.8342 0.8658
vt 0.8351 0.9015
vt 0.8565 0.8010
vt 0.8565 0.8367
vt 0.5000 0.8367
vt 0.5000 0.8010
vt 0.8279 0.8581
vt 0.5214 0.8652
vt 0.8288 0.7440
vt 0.8279 0.7796
vt 0.5214 0.7725
vt 0.5222 0.7369
vt 0.3283 0.8726
vt 0.3291 0.9083
vt 0.0225 0.9154
vt 0.0217 0.8798
vt 0.3283 0.7942
vt 0.3568 0.8156
vt 0.0003 0.8156
vt 0.0217 0.7871
vt 0.6709 0.7291
vt 0.9775 0.7362
vt 0.3568 0.8512
vt 0.0003 0.8512
vt 0.4593 0.4300
vt 0.4593 0.4656
vt 0.4236 0.4656
vt 0.4236 0.4300
vn -1.0000 0.0000 0.0000
vn 0.0000 0.0000 -1.0000
vn 1.0000 0.0000 0.0000
vn 0.0000 -0.0000 1.0000
vn 0.0000 -1.0000 -0.0000
vn 0.0000 1.0000 0.0000
vn 0.0000 0.8000 0.6000
vn 0.0000 0.0000 0.0000
vn 0.0000 -0.8137 -0.5812
vn 0.0000 0.8000 -0.6000
vn 0.0000 -0.8137 0.5812
usemtl None
s 1
f 1/1/1 2/2/1 3/3/1 4/4/1
f 2/2/2 5/5/2 6/6/2 3/3/2
f 5/7/3 7/8/3 8/9/3 6/10/3
f 7/8/4 1/1/4 4/4/4 8/9/4
f 4/11/5 3/12/5 6/13/5 8/14/5
f 2/15/1 1/16/1 9/17/1 10/18/1
f 10/19/1 9/20/1 11/21/1 12/22/1
f 1/23/4 7/24/4 13/25/4 9/26/4
f 5/27/5 2/28/5 14/29/5 15/30/5
f 16/31/6 13/32/6 17/33/6 18/34/6
f 19/35/1 18/36/1 20/37/1 21/38/1
f 5/39/2 16/31/2 18/34/2 19/40/2
f 7/41/5 5/42/5 19/43/5 22/44/5
f 13/32/4 7/41/4 22/44/4 17/33/4
f 23/45/3 24/46/3 25/47/3 26/48/3
f 18/49/1 17/50/1 27/51/1 28/52/1
f 17/53/4 22/54/4 23/45/4 26/48/4
f 24/55/3 23/56/3 29/57/3 30/58/3
f 21/59/4 20/60/4 31/61/4 15/62/4
f 18/36/6 25/63/6 32/64/6 20/37/6
f 24/65/5 19/66/5 21/67/5 33/68/5
f 25/63/3 24/65/3 33/68/3 32/64/3
f 34/69/2 35/70/2 36/71/2 37/72/2
f 34/73/2 37/74/2 38/75/2 39/76/2
f 32/77/3 33/78/3 37/79/3 36/80/3
f 17/50/7 26/81/7 40/82/7 27/51/7
f 13/83/3 16/84/3 41/85/3 42/86/3
f 20/60/6 35/87/6 43/88/6 31/61/6
f 35/87/2 34/89/2 44/90/2 43/88/2
f 34/89/5 21/59/5 15/62/5 44/90/5
f 14/91/1 45/92/1 46/93/1 47/94/1
f 5/95/3 15/96/3 31/97/3 16/98/3
f 47/99/8 44/100/8 48/101/8 49/102/8
f 43/103/2 44/104/2 47/105/2 46/106/2
f 16/98/6 31/97/6 45/107/6 10/108/6
f 2/28/1 10/108/1 45/107/1 14/29/1
f 50/109/8 51/110/8 52/111/4 53/112/4
f 14/113/8 47/114/8 49/115/8 51/116/8
f 44/117/8 15/118/8 50/119/8 48/120/8
f 15/121/8 14/122/8 51/123/8 50/124/8
f 54/125/5 53/126/5 52/127/5 55/128/5
f 48/129/3 50/130/3 53/131/3 54/132/3
f 49/133/2 48/129/2 54/132/2 55/134/2
f 51/110/1 49/133/1 55/134/1 52/111/1
f 56/135/5 57/136/5 39/137/5 38/138/5
f 33/139/4 21/140/4 57/141/4 56/142/4
f 37/74/3 33/139/3 56/142/3 38/75/3
f 21/143/1 34/73/1 39/76/1 57/144/1
f 58/145/5 59/146/5 30/147/5 29/148/5
f 23/56/4 22/149/4 58/150/4 29/57/4
f 19/151/2 24/55/2 30/58/2 59/152/2
f 22/149/1 19/153/1 59/154/1 58/150/1
f 25/155/9 18/156/9 28/157/9 60/158/9
f 36/159/10 35/160/10 27/161/10 40/162/10
f 35/160/1 20/163/1 28/164/1 27/161/1
f 26/81/3 25/155/3 60/158/3 40/82/3
f 20/165/11 32/166/11 60/167/11 28/168/11
f 45/169/11 31/170/11 41/171/11 12/172/11
f 31/173/3 43/174/3 42/175/3 41/176/3
f 9/20/7 13/83/7 42/86/7 11/21/7
f 16/177/9 10/19/9 12/22/9 41/178/9
f 46/179/1 45/169/1 12/172/1 11/180/1
f 43/174/10 46/179/10 11/180/10 42/175/10
f 41/181/4 42/182/4 11/183/4 12/184/4
f 32/166/3 36/159/3 40/162/3 60/167/3
