# Blender v2.76 (sub 0) OBJ File: ''
# www.blender.org
mtllib MarketSize.mtl
o Circle_Circle.002
v 0.000000 0.000000 0.000000
v 0.000000 0.000000 -7.660000
v -6.633755 0.000000 -3.830000
v -6.633754 0.000000 3.830000
v 0.000001 0.000000 7.660000
v 6.633755 0.000000 3.829999
v 6.633755 0.000000 -3.829999
vt 0.433025 0.500000
vt 0.865957 0.749953
vt 0.433025 0.999907
vt 0.000093 0.749953
vt 0.000093 0.250046
vt 0.433025 0.000093
vt 0.865957 0.250047
vn 0.000000 1.000000 0.000000
usemtl None
s off
f 1/1/1 2/2/1 3/3/1
f 1/1/1 3/3/1 4/4/1
f 1/1/1 4/4/1 5/5/1
f 1/1/1 5/5/1 6/6/1
f 1/1/1 6/6/1 7/7/1
f 1/1/1 7/7/1 2/2/1
