# Blender v2.76 (sub 0) OBJ File: ''
# www.blender.org
mtllib StallObj.mtl
o Cube_Cube.001
v -0.250000 0.000000 0.750000
v -0.250000 0.500000 0.750000
v -0.250000 0.000000 -0.750000
v -0.250000 0.500000 -0.750000
v 0.250000 0.000000 0.750000
v 0.250000 0.500000 0.750000
v 0.250000 0.000000 -0.750000
v 0.250000 0.500000 -0.750000
v -0.250000 0.500000 0.715000
v -0.250000 0.500000 0.685000
v -0.250000 0.500000 -0.685000
v -0.250000 0.500000 -0.715000
v -0.250000 0.000000 -0.715000
v -0.250000 0.000000 -0.685000
v -0.250000 0.000000 0.685000
v -0.250000 0.000000 0.715000
v 0.250000 0.500000 -0.715000
v 0.250000 0.500000 -0.685000
v 0.250000 0.500000 0.685000
v 0.250000 0.500000 0.715000
v 0.250000 0.000000 0.715000
v 0.250000 0.000000 0.685000
v 0.250000 0.000000 -0.685000
v 0.250000 0.000000 -0.715000
v -0.215000 0.500000 -0.750000
v -0.185000 0.500000 -0.750000
v 0.185000 0.500000 -0.750000
v 0.215000 0.500000 -0.750000
v 0.215000 0.000000 -0.750000
v 0.185000 0.000000 -0.750000
v -0.185000 0.000000 -0.750000
v -0.215000 0.000000 -0.750000
v 0.215000 0.500000 0.750000
v 0.185000 0.500000 0.750000
v -0.185000 0.500000 0.750000
v -0.215000 0.500000 0.750000
v -0.215000 0.000000 0.750000
v -0.185000 0.000000 0.750000
v 0.185000 0.000000 0.750000
v 0.215000 0.000000 0.750000
v 0.215000 0.500000 0.715000
v 0.185000 0.500000 0.715000
v -0.185000 0.500000 0.715000
v -0.215000 0.500000 0.715000
v 0.215000 0.500000 0.685000
v 0.185000 0.500000 0.685000
v -0.185000 0.500000 0.685000
v -0.215000 0.500000 0.685000
v 0.215000 0.500000 -0.685000
v 0.185000 0.500000 -0.685000
v -0.185000 0.500000 -0.685000
v -0.215000 0.500000 -0.685000
v 0.215000 0.500000 -0.715000
v 0.185000 0.500000 -0.715000
v -0.185000 0.500000 -0.715000
v -0.215000 0.500000 -0.715000
v -0.215000 0.000000 0.715000
v -0.185000 0.000000 0.715000
v 0.185000 0.000000 0.715000
v 0.215000 0.000000 0.715000
v -0.215000 0.000000 0.685000
v -0.185000 0.000000 0.685000
v 0.185000 0.000000 0.685000
v 0.215000 0.000000 0.685000
v -0.215000 0.000000 -0.685000
v -0.185000 0.000000 -0.685000
v 0.185000 0.000000 -0.685000
v 0.215000 0.000000 -0.685000
v -0.215000 0.000000 -0.715000
v -0.185000 0.000000 -0.715000
v 0.185000 0.000000 -0.715000
v 0.215000 0.000000 -0.715000
v 0.215000 1.200000 0.715000
v 0.185000 1.200000 0.715000
v -0.185000 1.200000 0.715000
v -0.215000 1.200000 0.715000
v 0.215000 1.200000 0.685000
v 0.185000 1.200000 0.685000
v -0.185000 1.200000 0.685000
v -0.215000 1.200000 0.685000
v 0.215000 1.200000 -0.685000
v 0.185000 1.200000 -0.685000
v -0.185000 1.200000 -0.685000
v -0.215000 1.200000 -0.685000
v 0.215000 1.200000 -0.715000
v 0.185000 1.200000 -0.715000
v -0.185000 1.200000 -0.715000
v -0.215000 1.200000 -0.715000
v -0.415000 1.200000 -0.715000
v -0.415000 1.200000 -0.685000
v -0.415000 1.200000 0.685000
v -0.415000 1.200000 0.715000
v -0.415000 1.300000 -0.715000
v -0.415000 1.300000 -0.685000
v -0.415000 1.300000 0.685000
v -0.415000 1.300000 0.715000
v 0.415000 1.200000 -0.715000
v 0.415000 1.200000 -0.685000
v 0.415000 1.200000 0.685000
v 0.415000 1.200000 0.715000
v 0.415000 1.300000 -0.715000
v 0.415000 1.300000 -0.685000
v 0.415000 1.300000 0.685000
v 0.415000 1.300000 0.715000
v 0.215000 1.200000 0.815000
v 0.185000 1.200000 0.815000
v -0.185000 1.200000 0.815000
v -0.215000 1.200000 0.815000
v 0.215000 1.300000 0.815000
v 0.185000 1.300000 0.815000
v -0.185000 1.300000 0.815000
v -0.215000 1.300000 0.815000
v -0.415000 1.200000 0.815000
v -0.415000 1.300000 0.815000
v 0.415000 1.300000 0.815000
v 0.415000 1.200000 0.815000
v 0.215000 1.200000 -0.815000
v 0.185000 1.200000 -0.815000
v -0.185000 1.200000 -0.815000
v -0.215000 1.200000 -0.815000
v 0.215000 1.300000 -0.815000
v 0.185000 1.300000 -0.815000
v -0.185000 1.300000 -0.815000
v -0.215000 1.300000 -0.815000
v -0.415000 1.300000 -0.815000
v 0.415000 1.200000 -0.815000
v -0.415000 1.200000 -0.815000
v 0.415000 1.300000 -0.815000
v 0.010750 1.400000 0.715000
v 0.009250 1.400000 0.715000
v -0.009250 1.400000 0.715000
v -0.010750 1.400000 0.715000
v 0.010750 1.400000 0.685000
v 0.009250 1.400000 0.685000
v -0.009250 1.400000 0.685000
v -0.010750 1.400000 0.685000
v 0.010750 1.400000 -0.685000
v 0.009250 1.400000 -0.685000
v -0.009250 1.400000 -0.685000
v -0.010750 1.400000 -0.685000
v 0.010750 1.400000 -0.715000
v 0.009250 1.400000 -0.715000
v -0.009250 1.400000 -0.715000
v -0.010750 1.400000 -0.715000
v -0.020750 1.400000 -0.685000
v -0.020750 1.400000 -0.715000
v 0.020750 1.400000 0.715000
v 0.020750 1.400000 0.815000
v -0.010750 1.400000 0.815000
v -0.020750 1.400000 -0.815000
v 0.009250 1.400000 0.815000
v -0.009250 1.400000 0.815000
v -0.020750 1.400000 0.685000
v -0.020750 1.400000 0.715000
v 0.020750 1.400000 -0.715000
v 0.020750 1.400000 -0.685000
v 0.020750 1.400000 0.685000
v 0.010750 1.400000 0.815000
v -0.020750 1.400000 0.815000
v 0.010750 1.400000 -0.815000
v 0.009250 1.400000 -0.815000
v -0.009250 1.400000 -0.815000
v -0.010750 1.400000 -0.815000
v 0.020750 1.400000 -0.815000
vt 0.482172 0.493691
vt 0.493686 0.493691
vt 0.493687 0.658174
vt 0.482173 0.658174
vt 0.689897 0.658651
vt 0.701411 0.658651
vt 0.701411 0.823134
vt 0.689897 0.823134
vt 0.011751 0.329207
vt 0.000237 0.329207
vt 0.000238 0.164722
vt 0.011752 0.164722
vt 0.505675 0.544697
vt 0.494162 0.544697
vt 0.494161 0.380213
vt 0.505675 0.380213
vt 0.482172 0.153211
vt 0.493686 0.153211
vt 0.493686 0.164725
vt 0.482172 0.164725
vt 0.482172 0.482177
vt 0.493686 0.482177
vt 0.000237 0.482178
vt 0.011751 0.482178
vt 0.011751 0.493692
vt 0.000237 0.493692
vt 0.021620 0.482178
vt 0.021620 0.493692
vt 0.472303 0.482177
vt 0.472303 0.493691
vt 0.000238 0.153208
vt 0.011752 0.153208
vt 0.021621 0.153208
vt 0.021621 0.164722
vt 0.472303 0.153211
vt 0.472303 0.164725
vt 0.493686 0.329208
vt 0.482172 0.329208
vt 0.472303 0.329208
vt 0.021620 0.329207
vt 0.011751 0.658177
vt 0.000237 0.658177
vt 0.021620 0.658177
vt 0.472304 0.658174
vt 0.472304 0.000242
vt 0.482173 0.000242
vt 0.482173 0.011756
vt 0.472304 0.011756
vt 0.482173 0.021625
vt 0.472304 0.021625
vt 0.482172 0.143342
vt 0.472303 0.143342
vt 0.021622 0.000237
vt 0.021622 0.011751
vt 0.021622 0.021620
vt 0.021621 0.143339
vt 0.011753 0.000237
vt 0.011753 0.011751
vt 0.011753 0.021620
vt 0.011752 0.143339
vt 0.000239 0.000237
vt 0.000239 0.011751
vt 0.000239 0.021620
vt 0.000238 0.143339
vt 0.482172 0.340721
vt 0.472303 0.340721
vt 0.867412 0.545171
vt 0.877281 0.545171
vt 0.877281 0.775448
vt 0.867412 0.775448
vt 0.472303 0.350590
vt 0.482172 0.350590
vt 0.482172 0.472308
vt 0.472303 0.472308
vt 0.807724 0.545171
vt 0.817593 0.545171
vt 0.817593 0.775449
vt 0.807724 0.775449
vt 0.021620 0.340721
vt 0.021620 0.350590
vt 0.021620 0.472309
vt 0.011751 0.340721
vt 0.897494 0.545171
vt 0.907363 0.545171
vt 0.907363 0.775448
vt 0.897494 0.775448
vt 0.011751 0.350590
vt 0.011751 0.472309
vt 0.777643 0.545171
vt 0.787512 0.545171
vt 0.787512 0.775449
vt 0.777643 0.775449
vt 0.000237 0.340721
vt 0.000237 0.350590
vt 0.000237 0.472309
vt 0.493686 0.340721
vt 0.493686 0.350590
vt 0.493686 0.472308
vt 0.493687 0.000242
vt 0.493687 0.011756
vt 0.493687 0.021625
vt 0.493686 0.143342
vt 0.658645 0.544697
vt 0.647131 0.544697
vt 0.647131 0.380213
vt 0.658645 0.380213
vt 0.637262 0.544697
vt 0.637262 0.380213
vt 0.515544 0.544697
vt 0.515544 0.380213
vt 0.536927 0.658651
vt 0.548441 0.658651
vt 0.548441 0.823134
vt 0.536927 0.823134
vt 0.558310 0.658651
vt 0.558310 0.823134
vt 0.680028 0.658651
vt 0.680028 0.823134
vt 0.043003 0.856031
vt 0.493687 0.856031
vt 0.493687 0.865900
vt 0.043003 0.865900
vt 0.493687 0.734313
vt 0.043003 0.734313
vt 0.503556 0.734313
vt 0.503556 0.856031
vt 0.797381 0.545171
vt 0.807250 0.545171
vt 0.807249 0.775449
vt 0.797381 0.775449
vt 0.827462 0.545171
vt 0.827462 0.775449
vt 0.917232 0.545171
vt 0.917232 0.775448
vt 0.837331 0.545171
vt 0.847200 0.545171
vt 0.847200 0.775449
vt 0.837331 0.775449
vt 0.927101 0.545171
vt 0.927101 0.775448
vt 0.887625 0.545171
vt 0.887625 0.775448
vt 0.767774 0.545171
vt 0.767774 0.775449
vt 0.887151 0.545171
vt 0.887150 0.775448
vt 0.847674 0.545171
vt 0.857543 0.545171
vt 0.857543 0.775448
vt 0.847674 0.775448
vt 0.735021 0.856753
vt 0.612127 0.856733
vt 0.670550 0.823610
vt 0.676672 0.823621
vt 0.043003 0.724444
vt 0.493687 0.724444
vt 0.503556 0.724444
vt 0.536453 0.724444
vt 0.536453 0.734313
vt 0.033134 0.856031
vt 0.033134 0.865900
vt 0.000237 0.865900
vt 0.000237 0.856031
vt 0.503556 0.931693
vt 0.503556 0.865900
vt 0.536453 0.865900
vt 0.536453 0.931693
vt 0.033134 0.734313
vt 0.999238 0.337618
vt 0.965107 0.338694
vt 0.956979 0.194455
vt 0.994784 0.193583
vt 0.602305 0.856866
vt 0.668253 0.823608
vt 0.744818 0.856889
vt 0.678967 0.823620
vt 0.493687 0.931693
vt 0.043003 0.931693
vt 0.527943 0.008342
vt 0.528817 0.041283
vt 0.494686 0.042358
vt 0.494162 0.008812
vt 0.536453 0.856031
vt 0.494161 0.577777
vt 0.559409 0.578576
vt 0.625259 0.611845
vt 0.622016 0.611805
vt 0.569206 0.578712
vt 0.627554 0.611845
vt 0.536945 0.185521
vt 0.499140 0.186393
vt 0.692099 0.578734
vt 0.701922 0.578601
vt 0.635973 0.611858
vt 0.633676 0.611855
vt 0.810066 0.857686
vt 0.682210 0.823661
vt 0.965981 0.371634
vt 0.956125 0.371795
vt 0.954918 0.339247
vt 0.537989 0.379739
vt 0.538706 0.347209
vt 0.528046 0.379721
vt 0.528566 0.346750
vt 0.033134 0.724444
vt 0.033134 0.658651
vt 0.043003 0.658651
vt 0.999763 0.371164
vt 0.493687 0.658651
vt 0.503556 0.658651
vt 0.539006 0.040729
vt 0.549430 0.184448
vt 0.537799 0.008181
vt 0.955935 0.000237
vt 0.965878 0.000255
vt 0.965358 0.033226
vt 0.955218 0.032768
vt 0.549719 0.202847
vt 0.944494 0.195529
vt 0.536927 0.857616
vt 0.665007 0.823646
vt 0.956686 0.177737
vt 0.944205 0.177129
vt 0.033134 0.931693
vt 0.559693 0.545841
vt 0.494510 0.545171
vt 0.691821 0.545862
vt 0.701637 0.545795
vt 0.569508 0.545918
vt 0.766990 0.545177
vt 0.767299 0.577853
vt 0.494161 0.379597
vt 0.494286 0.345712
vt 0.000237 0.734313
vt 0.000237 0.724444
vt 0.537239 0.202239
vt 0.999638 0.034264
vt 0.994601 0.177722
vt 0.000237 0.931693
vt 0.000237 0.658651
vt 0.744535 0.889623
vt 0.809718 0.890292
vt 0.734720 0.889547
vt 0.612407 0.889606
vt 0.602591 0.889672
vt 0.537237 0.890292
vt 0.999763 0.000379
vt 0.639219 0.611820
vt 0.536453 0.658651
vt 0.499323 0.202254
vt 0.944055 0.182717
vt 0.956759 0.182400
vt 0.956883 0.189785
vt 0.944220 0.189958
vt 0.944041 0.182030
vt 0.956751 0.181752
vt 0.956892 0.190431
vt 0.944231 0.190642
vt 0.537032 0.189545
vt 0.549693 0.189334
vt 0.549704 0.190018
vt 0.537041 0.190191
vt 0.537165 0.197576
vt 0.549870 0.197259
vt 0.549883 0.197946
vt 0.537174 0.198224
vt 0.994634 0.182163
vt 0.994715 0.189149
vt 0.499200 0.190167
vt 0.499294 0.198474
vt 0.499290 0.197813
vt 0.499210 0.190827
vt 0.994630 0.181502
vt 0.994724 0.189809
vn -1.000000 0.000000 0.000000
vn 0.000000 0.000000 -1.000000
vn 1.000000 0.000000 0.000000
vn 0.000000 0.000000 1.000000
vn 0.000000 -1.000000 0.000000
vn 0.000000 1.000000 0.000000
vn -0.245900 0.969300 0.000000
vn 0.245900 0.969300 0.000000
usemtl None
s off
f 12/1/1 4/2/1 3/3/1 13/4/1
f 28/5/2 8/6/2 7/7/2 29/8/2
f 20/9/3 6/10/3 5/11/3 21/12/3
f 36/13/4 2/14/4 1/15/4 37/16/4
f 72/17/5 29/18/5 7/19/5 24/20/5
f 56/21/6 25/22/6 4/2/6 12/1/6
f 36/23/6 44/24/6 9/25/6 2/26/6
f 44/24/6 48/27/6 10/28/6 9/25/6
f 48/27/6 52/29/6 11/30/6 10/28/6
f 52/29/6 56/21/6 12/1/6 11/30/6
f 40/31/5 60/32/5 21/12/5 5/11/5
f 60/32/5 64/33/5 22/34/5 21/12/5
f 64/33/5 68/35/5 23/36/5 22/34/5
f 68/35/5 72/17/5 24/20/5 23/36/5
f 8/37/3 17/38/3 24/20/3 7/19/3
f 17/38/3 18/39/3 23/36/3 24/20/3
f 18/39/3 19/40/3 22/34/3 23/36/3
f 19/40/3 20/9/3 21/12/3 22/34/3
f 2/26/1 9/25/1 16/41/1 1/42/1
f 9/25/1 10/28/1 15/43/1 16/41/1
f 10/28/1 11/30/1 14/44/1 15/43/1
f 11/30/1 12/1/1 13/4/1 14/44/1
f 14/45/5 13/46/5 69/47/5 65/48/5
f 65/48/5 69/47/5 70/49/5 66/50/5
f 66/50/5 70/49/5 71/51/5 67/52/5
f 67/52/5 71/51/5 72/17/5 68/35/5
f 15/53/5 14/45/5 65/48/5 61/54/5
f 61/54/5 65/48/5 66/50/5 62/55/5
f 62/55/5 66/50/5 67/52/5 63/56/5
f 63/56/5 67/52/5 68/35/5 64/33/5
f 16/57/5 15/53/5 61/54/5 57/58/5
f 57/58/5 61/54/5 62/55/5 58/59/5
f 58/59/5 62/55/5 63/56/5 59/60/5
f 59/60/5 63/56/5 64/33/5 60/32/5
f 1/61/5 16/57/5 57/58/5 37/62/5
f 37/62/5 57/58/5 58/59/5 38/63/5
f 38/63/5 58/59/5 59/60/5 39/64/5
f 39/64/5 59/60/5 60/32/5 40/31/5
f 18/39/6 17/38/6 53/65/6 49/66/6
f 44/67/4 43/68/4 75/69/4 76/70/4
f 50/71/6 54/72/6 55/73/6 51/74/6
f 50/75/4 49/76/4 81/77/4 82/78/4
f 19/40/6 18/39/6 49/66/6 45/79/6
f 45/79/6 49/66/6 50/71/6 46/80/6
f 46/80/6 50/71/6 51/74/6 47/81/6
f 47/81/6 51/74/6 52/29/6 48/27/6
f 20/9/6 19/40/6 45/79/6 41/82/6
f 42/83/4 41/84/4 73/85/4 74/86/4
f 42/87/6 46/80/6 47/81/6 43/88/6
f 55/89/2 56/90/2 88/91/2 87/92/2
f 6/10/6 20/9/6 41/82/6 33/93/6
f 33/93/6 41/82/6 42/87/6 34/94/6
f 34/94/6 42/87/6 43/88/6 35/95/6
f 35/95/6 43/88/6 44/24/6 36/23/6
f 17/38/6 8/37/6 28/96/6 53/65/6
f 53/65/6 28/96/6 27/97/6 54/72/6
f 54/72/6 27/97/6 26/98/6 55/73/6
f 55/73/6 26/98/6 25/22/6 56/21/6
f 13/46/5 3/99/5 32/100/5 69/47/5
f 69/47/5 32/100/5 31/101/5 70/49/5
f 70/49/5 31/101/5 30/102/5 71/51/5
f 71/51/5 30/102/5 29/18/5 72/17/5
f 6/103/4 33/104/4 40/105/4 5/106/4
f 33/104/4 34/107/4 39/108/4 40/105/4
f 34/107/4 35/109/4 38/110/4 39/108/4
f 35/109/4 36/13/4 37/16/4 38/110/4
f 4/111/2 25/112/2 32/113/2 3/114/2
f 25/112/2 26/115/2 31/116/2 32/113/2
f 26/115/2 27/117/2 30/118/2 31/116/2
f 27/117/2 28/5/2 29/8/2 30/118/2
f 78/119/5 82/120/5 81/121/5 77/122/5
f 83/123/5 82/120/5 78/119/5 79/124/5
f 82/120/5 83/123/5 87/125/5 86/126/5
f 52/127/4 51/128/4 83/129/4 84/130/4
f 49/76/3 53/131/3 85/132/3 81/77/3
f 41/84/3 45/133/3 77/134/3 73/85/3
f 54/135/1 50/136/1 82/137/1 86/138/1
f 45/133/2 46/139/2 78/140/2 77/134/2
f 46/141/1 42/83/1 74/86/1 78/142/1
f 53/131/2 54/135/2 86/138/2 85/132/2
f 51/143/3 55/89/3 87/92/3 83/144/3
f 43/68/3 47/145/3 79/146/3 75/69/3
f 56/90/1 52/127/1 84/130/1 88/91/1
f 47/147/2 48/148/2 80/149/2 79/150/2
f 48/148/1 44/67/1 76/70/1 80/149/1
f 122/151/2 123/152/2 162/153/2 161/154/2
f 80/155/5 84/156/5 83/123/5 79/124/5
f 87/125/5 88/157/5 120/158/5 119/159/5
f 74/160/5 73/161/5 105/162/5 106/163/5
f 97/164/5 85/165/5 117/166/5 126/167/5
f 74/160/5 75/168/5 79/124/5 78/119/5
f 125/169/7 93/170/7 146/171/7 150/172/7
f 123/152/2 124/173/2 163/174/2 162/153/2
f 121/175/2 122/151/2 161/154/2 160/176/2
f 77/122/5 81/121/5 98/177/5 99/178/5
f 100/179/3 104/180/3 115/181/3 116/182/3
f 85/165/5 86/126/5 118/183/5 117/166/5
f 114/184/4 112/185/4 149/186/4 159/187/4
f 112/185/4 111/188/4 152/189/4 149/186/4
f 81/121/5 85/165/5 97/164/5 98/177/5
f 115/181/8 104/180/8 147/190/8 148/191/8
f 110/192/4 109/193/4 158/194/4 151/195/4
f 128/196/2 121/175/2 160/176/2 164/197/2
f 89/198/1 90/199/1 94/200/1 93/170/1
f 94/200/1 90/199/1 91/201/1 95/202/1
f 91/201/1 92/203/1 96/204/1 95/202/1
f 80/155/5 76/205/5 92/206/5 91/207/5
f 89/198/1 93/170/1 125/169/1 127/208/1
f 88/157/5 84/156/5 90/209/5 89/210/5
f 84/156/5 80/155/5 91/207/5 90/209/5
f 104/180/8 103/211/8 157/212/8 147/190/8
f 100/179/3 99/213/3 103/211/3 104/180/3
f 98/214/3 97/215/3 101/216/3 102/217/3
f 103/211/3 99/213/3 98/214/3 102/217/3
f 111/188/4 110/192/4 151/195/4 152/189/4
f 94/200/7 95/202/7 153/218/7 145/219/7
f 124/173/2 125/220/2 150/221/2 163/174/2
f 102/217/8 101/216/8 155/222/8 156/223/8
f 73/161/5 77/122/5 99/178/5 100/224/5
f 108/225/4 112/185/4 114/184/4 113/226/4
f 106/227/4 105/228/4 109/193/4 110/192/4
f 108/225/4 107/229/4 111/188/4 112/185/4
f 106/227/4 110/192/4 111/188/4 107/229/4
f 109/193/4 105/228/4 116/230/4 115/231/4
f 96/204/1 92/203/1 113/232/1 114/233/1
f 75/168/5 74/160/5 106/163/5 107/234/5
f 76/205/5 75/168/5 107/234/5 108/235/5
f 95/202/7 96/204/7 154/236/7 153/218/7
f 101/216/8 128/237/8 164/238/8 155/222/8
f 73/161/5 100/224/5 116/239/5 105/162/5
f 92/206/5 76/205/5 108/235/5 113/240/5
f 117/241/2 121/175/2 128/196/2 126/242/2
f 117/241/2 118/243/2 122/151/2 121/175/2
f 119/244/2 120/245/2 124/173/2 123/152/2
f 122/151/2 118/243/2 119/244/2 123/152/2
f 124/173/2 120/245/2 127/246/2 125/220/2
f 101/216/3 97/215/3 126/247/3 128/237/3
f 103/211/8 102/217/8 156/223/8 157/212/8
f 86/126/5 87/125/5 119/159/5 118/183/5
f 109/193/4 115/231/4 148/248/4 158/194/4
f 88/157/5 89/210/5 127/249/5 120/158/5
f 93/170/7 94/200/7 145/219/7 146/171/7
f 96/204/7 114/233/7 159/250/7 154/236/7
f 138/251/6 142/252/6 143/253/6 139/254/6
f 137/255/6 141/256/6 142/252/6 138/251/6
f 139/254/6 143/253/6 144/257/6 140/258/6
f 129/259/6 133/260/6 134/261/6 130/262/6
f 131/263/6 135/264/6 136/265/6 132/266/6
f 136/265/6 140/258/6 145/219/6 153/218/6
f 143/253/6 142/252/6 161/267/6 162/268/6
f 147/190/6 129/259/6 158/269/6 148/191/6
f 140/258/6 144/257/6 146/171/6 145/219/6
f 130/262/6 134/261/6 135/264/6 131/263/6
f 131/263/6 132/266/6 149/270/6 152/271/6
f 134/261/6 133/260/6 137/255/6 138/251/6
f 135/264/6 134/261/6 138/251/6 139/254/6
f 136/265/6 135/264/6 139/254/6 140/258/6
f 132/266/6 136/265/6 153/218/6 154/236/6
f 130/262/6 131/263/6 152/271/6 151/272/6
f 133/260/6 129/259/6 147/190/6 157/212/6
f 137/255/6 133/260/6 157/212/6 156/223/6
f 141/256/6 137/255/6 156/223/6 155/222/6
f 132/266/6 154/236/6 159/250/6 149/270/6
f 129/259/6 130/262/6 151/272/6 158/269/6
f 142/252/6 141/256/6 160/273/6 161/267/6
f 141/256/6 155/222/6 164/238/6 160/273/6
f 146/171/6 144/257/6 163/274/6 150/172/6
f 144/257/6 143/253/6 162/268/6 163/274/6
