# Blender v2.76 (sub 0) OBJ File: ''
# www.blender.org
mtllib WeaponsmithForgeObj.mtl
o Cylinder_Cylinder.002
v 1.470000 0.000000 0.000000
v 1.470000 0.050000 -0.900000
v 1.470000 0.000000 -1.000000
v 1.470000 0.200000 -1.000000
v 1.852683 0.000000 -0.923880
v 1.852683 0.200000 -0.923880
v 2.177107 0.000000 -0.707107
v 2.177107 0.200000 -0.707107
v 2.393879 0.000000 -0.382683
v 2.393879 0.200000 -0.382683
v 2.470000 0.000000 0.000000
v 2.470000 0.200000 0.000000
v 2.393879 0.000000 0.382684
v 2.393879 0.200000 0.382684
v 2.177107 0.000000 0.707107
v 2.177107 0.200000 0.707107
v 1.852683 0.000000 0.923880
v 1.852683 0.200000 0.923880
v 1.470000 0.000000 1.000000
v 1.470000 0.200000 1.000000
v 1.087317 0.000000 0.923880
v 1.087317 0.200000 0.923880
v 0.762893 0.000000 0.707107
v 0.762893 0.200000 0.707107
v 0.546120 0.000000 0.382684
v 0.546120 0.200000 0.382684
v 0.470000 0.000000 -0.000000
v 0.470000 0.200000 -0.000000
v 0.546120 0.000000 -0.382684
v 0.546120 0.200000 -0.382684
v 0.762893 0.000000 -0.707107
v 0.762893 0.200000 -0.707107
v 1.087317 0.000000 -0.923880
v 1.087317 0.200000 -0.923880
v 1.470000 0.200000 -0.900000
v 1.814415 0.200000 -0.831492
v 2.106396 0.200000 -0.636396
v 2.301491 0.200000 -0.344415
v 2.370000 0.200000 0.000000
v 2.301491 0.200000 0.344415
v 2.106396 0.200000 0.636396
v 1.814415 0.200000 0.831492
v 1.470000 0.200000 0.900000
v 1.125585 0.200000 0.831492
v 0.833604 0.200000 0.636396
v 0.638508 0.200000 0.344415
v 0.570000 0.200000 -0.000000
v 0.638508 0.200000 -0.344415
v 0.833604 0.200000 -0.636396
v 1.125585 0.200000 -0.831492
v 1.470000 0.050000 -0.000000
v 1.814415 0.050000 -0.831492
v 2.106396 0.050000 -0.636396
v 2.301491 0.050000 -0.344415
v 2.370000 0.050000 0.000000
v 2.301491 0.050000 0.344415
v 2.106396 0.050000 0.636396
v 1.814415 0.050000 0.831492
v 1.470000 0.050000 0.900000
v 1.125585 0.050000 0.831492
v 0.833604 0.050000 0.636396
v 0.638508 0.050000 0.344415
v 0.570000 0.050000 -0.000000
v 0.638508 0.050000 -0.344415
v 0.833604 0.050000 -0.636396
v 1.125585 0.050000 -0.831492
vt 0.471568 0.157189
vt 0.440326 0.000124
vt 0.502810 0.000124
vt 0.125947 0.314255
vt 0.068219 0.290343
vt 0.077116 0.277028
vt 0.129071 0.298548
vt 0.500000 0.629496
vt 0.500000 0.597468
vt 0.562485 0.597468
vt 0.562485 0.629496
vt 0.560538 0.024036
vt 0.000124 0.188432
vt 0.000124 0.125947
vt 0.015830 0.129071
vt 0.015830 0.185307
vt 0.624969 0.597468
vt 0.624969 0.629496
vt 0.604722 0.068219
vt 0.068219 0.024035
vt 0.125947 0.000124
vt 0.129071 0.015830
vt 0.077116 0.037351
vt 0.687454 0.597468
vt 0.687454 0.629496
vt 0.628633 0.125947
vt 0.246160 0.024036
vt 0.290343 0.068219
vt 0.277028 0.077116
vt 0.237263 0.037352
vt 0.749938 0.597468
vt 0.749938 0.629496
vt 0.628633 0.188432
vt 0.314255 0.188432
vt 0.290343 0.246160
vt 0.277028 0.237263
vt 0.298548 0.185308
vt 0.812423 0.597468
vt 0.812423 0.629496
vt 0.604721 0.246160
vt 0.024036 0.246160
vt 0.037351 0.237263
vt 0.874907 0.597468
vt 0.874907 0.629496
vt 0.560538 0.290343
vt 0.024036 0.068219
vt 0.037351 0.077116
vt 0.937392 0.597468
vt 0.937392 0.629496
vt 0.502810 0.314255
vt 0.188432 0.000124
vt 0.185308 0.015831
vt 0.999876 0.597468
vt 0.999876 0.629496
vt 0.440326 0.314255
vt 0.314255 0.125948
vt 0.298548 0.129072
vt 0.000124 0.629497
vt 0.000124 0.597468
vt 0.062608 0.597468
vt 0.062608 0.629497
vt 0.382597 0.290343
vt 0.246160 0.290343
vt 0.188432 0.314255
vt 0.185307 0.298548
vt 0.237263 0.277028
vt 0.125093 0.597468
vt 0.125093 0.629496
vt 0.338414 0.246160
vt 0.187577 0.597468
vt 0.187577 0.629496
vt 0.314502 0.188431
vt 0.250062 0.597468
vt 0.250062 0.629496
vt 0.314502 0.125947
vt 0.312546 0.597468
vt 0.312546 0.629496
vt 0.338414 0.068219
vt 0.375031 0.597468
vt 0.375031 0.629496
vt 0.382598 0.024035
vt 0.437516 0.597468
vt 0.437516 0.629496
vt 0.787429 0.653765
vt 0.731193 0.653765
vt 0.731193 0.629744
vt 0.787429 0.629744
vt 0.562485 0.653765
vt 0.506249 0.653765
vt 0.506249 0.629744
vt 0.562485 0.629744
vt 0.281305 0.653765
vt 0.225068 0.653765
vt 0.225068 0.629744
vt 0.281305 0.629744
vt 0.056360 0.653765
vt 0.000124 0.653765
vt 0.000124 0.629744
vt 0.056360 0.629744
vt 0.674957 0.653765
vt 0.674957 0.629744
vt 0.450013 0.653765
vt 0.450013 0.629744
vt 0.168832 0.653765
vt 0.168832 0.629744
vt 0.393777 0.653765
vt 0.393777 0.629744
vt 0.899901 0.653765
vt 0.843665 0.653765
vt 0.843665 0.629744
vt 0.899901 0.629744
vt 0.618721 0.653765
vt 0.618721 0.629744
vt 0.337541 0.653765
vt 0.337541 0.629744
vt 0.112596 0.653765
vt 0.112596 0.629744
vt 0.141483 0.455861
vt 0.221556 0.575700
vt 0.169601 0.597220
vt 0.261321 0.535935
vt 0.282842 0.483979
vt 0.282842 0.427743
vt 0.261321 0.375788
vt 0.221556 0.336023
vt 0.169601 0.314502
vt 0.113365 0.314502
vt 0.061409 0.336023
vt 0.021644 0.375788
vt 0.000124 0.427743
vt 0.000124 0.483979
vt 0.021644 0.535935
vt 0.061409 0.575700
vt 0.113365 0.597220
vn 0.000000 -1.000000 0.000000
vn 0.000000 1.000000 -0.000000
vn 0.195100 0.000000 -0.980800
vn 0.555600 0.000000 -0.831500
vn 0.831500 0.000000 -0.555600
vn 0.980800 0.000000 -0.195100
vn 0.980800 0.000000 0.195100
vn 0.831500 0.000000 0.555600
vn 0.555600 0.000000 0.831500
vn 0.195100 0.000000 0.980800
vn -0.195100 0.000000 0.980800
vn -0.555600 0.000000 0.831500
vn -0.831500 0.000000 0.555600
vn -0.980800 0.000000 0.195100
vn -0.980800 0.000000 -0.195100
vn -0.831500 0.000000 -0.555600
vn -0.555600 0.000000 -0.831500
vn -0.195100 0.000000 -0.980800
usemtl None
s off
f 1/1/1 3/2/1 5/3/1
f 34/4/2 32/5/2 49/6/2 50/7/2
f 3/8/3 4/9/3 6/10/3 5/11/3
f 1/1/1 5/3/1 7/12/1
f 28/13/2 26/14/2 46/15/2 47/16/2
f 5/11/4 6/10/4 8/17/4 7/18/4
f 1/1/1 7/12/1 9/19/1
f 22/20/2 20/21/2 43/22/2 44/23/2
f 7/18/5 8/17/5 10/24/5 9/25/5
f 1/1/1 9/19/1 11/26/1
f 16/27/2 14/28/2 40/29/2 41/30/2
f 9/25/6 10/24/6 12/31/6 11/32/6
f 1/1/1 11/26/1 13/33/1
f 10/34/2 8/35/2 37/36/2 38/37/2
f 11/32/7 12/31/7 14/38/7 13/39/7
f 1/1/1 13/33/1 15/40/1
f 30/41/2 28/13/2 47/16/2 48/42/2
f 13/39/8 14/38/8 16/43/8 15/44/8
f 1/1/1 15/40/1 17/45/1
f 24/46/2 22/20/2 44/23/2 45/47/2
f 15/44/9 16/43/9 18/48/9 17/49/9
f 1/1/1 17/45/1 19/50/1
f 18/51/2 16/27/2 41/30/2 42/52/2
f 17/49/10 18/48/10 20/53/10 19/54/10
f 1/1/1 19/50/1 21/55/1
f 12/56/2 10/34/2 38/37/2 39/57/2
f 19/58/11 20/59/11 22/60/11 21/61/11
f 1/1/1 21/55/1 23/62/1
f 6/63/2 4/64/2 35/65/2 36/66/2
f 21/61/12 22/60/12 24/67/12 23/68/12
f 1/1/1 23/62/1 25/69/1
f 4/64/2 34/4/2 50/7/2 35/65/2
f 23/68/13 24/67/13 26/70/13 25/71/13
f 1/1/1 25/69/1 27/72/1
f 32/5/2 30/41/2 48/42/2 49/6/2
f 25/71/14 26/70/14 28/73/14 27/74/14
f 1/1/1 27/72/1 29/75/1
f 26/14/2 24/46/2 45/47/2 46/15/2
f 27/74/15 28/73/15 30/76/15 29/77/15
f 1/1/1 29/75/1 31/78/1
f 20/21/2 18/51/2 42/52/2 43/22/2
f 29/77/16 30/76/16 32/79/16 31/80/16
f 1/1/1 31/78/1 33/81/1
f 14/28/2 12/56/2 39/57/2 40/29/2
f 31/80/17 32/79/17 34/82/17 33/83/17
f 1/1/1 33/81/1 3/2/1
f 8/35/2 6/63/2 36/66/2 37/36/2
f 33/83/18 34/82/18 4/9/18 3/8/18
f 41/84/16 40/85/16 56/86/16 57/87/16
f 37/88/12 36/89/12 52/90/12 53/91/12
f 48/92/7 47/93/7 63/94/7 64/95/7
f 44/96/3 43/97/3 59/98/3 60/99/3
f 40/85/15 39/100/15 55/101/15 56/86/15
f 36/89/11 35/102/11 2/103/11 52/90/11
f 47/93/6 46/104/6 62/105/6 63/94/6
f 35/102/10 50/106/10 66/107/10 2/103/10
f 43/108/18 42/109/18 58/110/18 59/111/18
f 39/100/14 38/112/14 54/113/14 55/101/14
f 50/106/9 49/114/9 65/115/9 66/107/9
f 46/104/5 45/116/5 61/117/5 62/105/5
f 42/109/17 41/84/17 57/87/17 58/110/17
f 38/112/13 37/88/13 53/91/13 54/113/13
f 49/114/8 48/92/8 64/95/8 65/115/8
f 45/116/4 44/96/4 60/99/4 61/117/4
f 51/118/2 52/119/2 2/120/2
f 51/118/2 53/121/2 52/119/2
f 51/118/2 54/122/2 53/121/2
f 51/118/2 55/123/2 54/122/2
f 51/118/2 56/124/2 55/123/2
f 51/118/2 57/125/2 56/124/2
f 51/118/2 58/126/2 57/125/2
f 51/118/2 59/127/2 58/126/2
f 51/118/2 60/128/2 59/127/2
f 51/118/2 61/129/2 60/128/2
f 51/118/2 62/130/2 61/129/2
f 51/118/2 63/131/2 62/130/2
f 51/118/2 64/132/2 63/131/2
f 51/118/2 65/133/2 64/132/2
f 51/118/2 66/134/2 65/133/2
f 51/118/2 2/120/2 66/134/2
