# Blender v2.76 (sub 0) OBJ File: ''
# www.blender.org
mtllib HouseObj.mtl
o Cube_Cube.002
v -1.000000 0.000000 1.000000
v -1.000000 1.000000 1.000000
v -1.000000 0.000000 -1.000000
v -1.000000 1.000000 -1.000000
v 1.000000 0.000000 1.000000
v 1.000000 1.000000 1.000000
v 1.000000 0.000000 -1.000000
v 1.000000 1.000000 -1.000000
v -1.000000 2.000000 0.000000
v -1.000000 0.000000 0.000000
v 1.000000 2.000000 0.000000
v 1.000000 0.000000 0.000000
v -1.078022 2.000000 0.000000
v -1.078022 1.000000 -1.135130
v 1.078022 1.000000 -1.135130
v 1.078022 2.000000 0.000000
v 1.078022 1.000000 1.135130
v -1.078022 1.000000 1.135130
v -1.078022 2.135297 0.000000
v -1.078022 1.135297 -1.135130
v 1.078022 1.135297 -1.135130
v 1.078022 2.135297 0.000000
v 1.078022 1.135297 1.135130
v -1.078022 1.135297 1.135130
vt 0.000116 0.125087
vt 0.125087 0.000116
vt 0.250058 0.000116
vt 0.250058 0.125087
vt 0.125087 0.999884
vt 0.125087 0.749942
vt 0.250058 0.749942
vt 0.250058 0.999884
vt 0.000116 0.624971
vt 0.125087 0.500000
vt 0.250058 0.500000
vt 0.250058 0.624971
vt 0.125087 0.250058
vt 0.250058 0.250058
vt 0.250291 0.600453
vt 0.250291 0.475482
vt 0.500233 0.475482
vt 0.500233 0.600453
vt 0.552110 0.000116
vt 0.610710 0.243790
vt 0.596798 0.243166
vt 0.534990 0.017897
vt 0.530517 0.475249
vt 0.308891 0.475249
vt 0.326012 0.457469
vt 0.517238 0.462195
vt 0.250291 0.725424
vt 0.500233 0.725424
vt 0.576289 0.242280
vt 0.527749 0.031386
vt 0.264203 0.232199
vt 0.343763 0.013170
vt 0.350603 0.029360
vt 0.284712 0.233085
vt 0.250291 0.231575
vt 0.330484 0.000116
vt 0.510399 0.446005
vt 0.333252 0.443979
vn -1.000000 0.000000 0.000000
vn 0.000000 0.000000 -1.000000
vn 1.000000 0.000000 0.000000
vn 0.000000 0.000000 1.000000
vn 0.000000 -1.000000 0.000000
vn 0.509400 -0.628000 -0.588300
vn 0.509400 -0.628000 0.588300
vn -0.509400 -0.628000 -0.588300
vn -0.509400 -0.628000 0.588300
vn 0.000000 0.750400 -0.661000
vn 0.000000 0.750400 0.661000
usemtl None
s off
f 9/1/1 4/2/1 3/3/1 10/4/1
f 4/5/2 8/6/2 7/7/2 3/8/2
f 11/9/3 6/10/3 5/11/3 12/12/3
f 6/10/4 2/13/4 1/14/4 5/11/4
f 10/15/5 3/16/5 7/17/5 12/18/5
f 6/19/6 11/20/6 16/21/6 17/22/6
f 8/23/5 4/24/5 14/25/5 15/26/5
f 1/27/5 10/15/5 12/18/5 5/28/5
f 8/6/3 11/9/3 12/12/3 7/7/3
f 2/13/1 9/1/1 10/4/1 1/14/1
f 17/22/3 16/21/3 22/29/3 23/30/3
f 13/31/1 18/32/1 24/33/1 19/34/1
f 11/20/7 8/23/7 15/26/7 16/21/7
f 9/35/8 2/36/8 18/32/8 13/31/8
f 4/24/9 9/35/9 13/31/9 14/25/9
f 2/36/5 6/19/5 17/22/5 18/32/5
f 22/29/10 21/37/10 20/38/10 19/34/10
f 23/30/11 22/29/11 19/34/11 24/33/11
f 14/25/1 13/31/1 19/34/1 20/38/1
f 16/21/3 15/26/3 21/37/3 22/29/3
f 18/32/4 17/22/4 23/30/4 24/33/4
f 15/26/2 14/25/2 20/38/2 21/37/2
