# Blender v2.76 (sub 0) OBJ File: ''
# www.blender.org
mtllib TestTownHall.mtl
o Cylinder_Cylinder.005
v 0.000000 0.000000 0.000000
v 0.000000 0.000001 -6.500000
v 3.250000 0.000001 -5.629165
v 6.500000 2.000000 0.000000
v 5.629166 2.000000 -3.250000
v 3.940416 2.000000 -2.275000
v 4.550000 2.000000 0.000000
v 0.000000 2.000001 -6.500000
v 3.250000 2.000001 -5.629165
v 5.629166 0.000001 -3.250000
v 3.250000 1.999999 5.629166
v 5.629165 2.000000 3.250000
v 3.940416 2.000000 2.275001
v 2.275000 1.999999 3.940416
v 6.500000 0.000000 0.000000
v -3.249999 1.999999 5.629167
v 0.000001 1.999999 6.500000
v 0.000001 1.999999 4.550001
v -2.274999 1.999999 3.940416
v 5.629165 -0.000001 3.250000
v -6.500000 2.000000 0.000003
v -5.629164 2.000000 3.250002
v -3.940415 2.000000 2.275002
v -4.550000 2.000000 0.000002
v 3.250000 -0.000001 5.629165
v 0.000000 2.000001 -4.550000
v 2.275000 2.000001 -3.940416
v 0.000001 -0.000001 6.500000
v -3.250004 2.000001 -5.629162
v -5.629167 2.000000 -3.249997
v -3.940417 2.000000 -2.274997
v -2.275003 2.000001 -3.940414
v -3.249999 -0.000001 5.629166
v -5.629164 -0.000001 3.250002
v -6.500000 -0.000000 0.000003
v -5.629167 0.000001 -3.249997
v -3.250004 0.000001 -5.629163
v -3.940415 4.000000 2.275003
v -4.550000 4.000000 0.000003
v 2.275000 4.000000 -3.940415
v 3.940416 4.000000 -2.274999
v 0.000001 3.999999 4.550001
v -2.274999 3.999999 3.940417
v 3.940416 4.000000 2.275002
v 2.275000 3.999999 3.940417
v -3.940417 4.000000 -2.274996
v 4.550000 4.000000 0.000001
v -2.275003 4.000000 -3.940413
v 0.000000 4.000001 -4.550000
v 1.592500 4.000000 -2.758290
v 2.758291 4.000000 -1.592498
v 0.000000 4.000000 3.185001
v -1.592499 4.000000 2.758292
v 2.758291 4.000000 1.592502
v 1.592500 4.000000 2.758292
v -3.185000 4.000000 0.000003
v -2.758292 4.000000 -1.592497
v 3.185000 4.000000 0.000002
v -1.592502 4.000000 -2.758289
v 0.000000 4.000000 -3.184999
v -2.758290 4.000000 1.592502
v 1.592500 6.000000 -2.758290
v 2.758291 6.000000 -1.592498
v 0.000000 6.000000 3.185001
v -1.592499 6.000000 2.758292
v 2.758291 6.000000 1.592502
v 1.592500 6.000000 2.758292
v -3.185000 6.000000 0.000003
v -2.758292 6.000000 -1.592497
v 3.185000 6.000000 0.000002
v -1.592502 6.000000 -2.758289
v 0.000000 6.000000 -3.184999
v -2.758290 6.000000 1.592502
v 0.000000 6.000000 2.229501
v -1.114750 6.000000 1.930805
v 1.930804 6.000000 1.114752
v 1.114750 6.000000 1.930805
v -2.229500 6.000000 0.000003
v -1.930804 6.000000 -1.114747
v 1.930804 6.000000 -1.114748
v 2.229500 6.000000 0.000002
v -1.114751 6.000000 -1.930801
v 0.000000 6.000000 -2.229499
v -1.930803 6.000000 1.114752
v 1.114750 6.000000 -1.930802
v 1.930804 8.000000 1.114752
v 1.114750 8.000000 1.930805
v -2.229500 8.000000 0.000003
v -1.930804 8.000000 -1.114747
v 1.930804 8.000000 -1.114748
v 2.229500 8.000000 0.000002
v -1.114751 8.000000 -1.930801
v 0.000000 8.000000 -2.229499
v -1.114750 8.000000 1.930805
v -1.930803 8.000000 1.114752
v 1.114750 8.000000 -1.930802
v 0.000000 8.000000 2.229501
v 0.000000 8.000000 0.000002
vt 0.155623 0.466869
vt 0.197274 0.311426
vt 0.269416 0.353077
vt 0.311067 0.197274
vt 0.269416 0.269416
vt 0.235278 0.235278
vt 0.264434 0.184779
vt 0.250086 0.672274
vt 0.250103 0.622758
vt 0.333405 0.622787
vt 0.333388 0.672303
vt 0.311067 0.425218
vt 0.269416 0.041830
vt 0.311067 0.113972
vt 0.264434 0.126467
vt 0.235278 0.075968
vt 0.416707 0.622815
vt 0.416690 0.672331
vt 0.311067 0.508520
vt 0.113972 0.000179
vt 0.197274 0.000179
vt 0.184779 0.046813
vt 0.126468 0.046813
vt 0.500009 0.622844
vt 0.499992 0.672360
vt 0.269416 0.580662
vt 0.000180 0.113972
vt 0.041831 0.041830
vt 0.075968 0.075968
vt 0.046813 0.126467
vt 0.583311 0.622873
vt 0.583294 0.672389
vt 0.197274 0.622313
vt 0.197274 0.311067
vt 0.113972 0.311067
vt 0.126467 0.264434
vt 0.184779 0.264434
vt 0.666613 0.622901
vt 0.666596 0.672417
vt 0.113972 0.622313
vt 0.041830 0.269416
vt 0.000179 0.197274
vt 0.046813 0.184779
vt 0.075968 0.235278
vt 0.749915 0.622930
vt 0.749898 0.672446
vt 0.041830 0.580662
vt 0.833217 0.622959
vt 0.833200 0.672475
vt 0.000179 0.508520
vt 0.916519 0.622988
vt 0.916502 0.672503
vt 0.000179 0.425218
vt 0.999821 0.623016
vt 0.999803 0.672532
vt 0.041830 0.353077
vt 0.000179 0.672188
vt 0.000196 0.622672
vt 0.083499 0.622700
vt 0.083481 0.672216
vt 0.113972 0.311426
vt 0.166801 0.622729
vt 0.166783 0.672245
vt 0.000179 0.672892
vt 0.058491 0.672892
vt 0.058491 0.722408
vt 0.000179 0.722408
vt 0.408359 0.672891
vt 0.466671 0.672891
vt 0.466671 0.722407
vt 0.408359 0.722407
vt 0.116802 0.672891
vt 0.175114 0.672891
vt 0.175114 0.722407
vt 0.116802 0.722408
vt 0.233425 0.672891
vt 0.291736 0.672891
vt 0.291736 0.722407
vt 0.233425 0.722407
vt 0.641605 0.672891
vt 0.699916 0.672891
vt 0.699916 0.722407
vt 0.641605 0.722407
vt 0.350048 0.672891
vt 0.350048 0.722407
vt 0.524982 0.672891
vt 0.583294 0.672891
vt 0.583294 0.722407
vt 0.524982 0.722407
vt 0.499891 0.188645
vt 0.449392 0.217801
vt 0.440645 0.185157
vt 0.475995 0.164748
vt 0.391081 0.000179
vt 0.449392 0.000179
vt 0.440645 0.032823
vt 0.399827 0.032823
vt 0.499891 0.029335
vt 0.529047 0.079834
vt 0.496404 0.088581
vt 0.475995 0.053232
vt 0.311426 0.138146
vt 0.311426 0.079834
vt 0.344069 0.088581
vt 0.344069 0.129399
vt 0.529047 0.138146
vt 0.496404 0.129399
vt 0.391081 0.217801
vt 0.340581 0.188645
vt 0.364478 0.164748
vt 0.399827 0.185157
vt 0.340581 0.029335
vt 0.364478 0.053232
vt 0.285905 0.722766
vt 0.326723 0.722766
vt 0.326723 0.772282
vt 0.285905 0.772282
vt 0.081815 0.722766
vt 0.122633 0.722766
vt 0.122633 0.772282
vt 0.081815 0.772282
vt 0.163451 0.722766
vt 0.204269 0.722766
vt 0.204269 0.772282
vt 0.163451 0.772282
vt 0.449177 0.722766
vt 0.489995 0.722767
vt 0.489995 0.772283
vt 0.449177 0.772282
vt 0.245087 0.722766
vt 0.245087 0.772282
vt 0.367541 0.722766
vt 0.408359 0.722766
vt 0.408359 0.772282
vt 0.367541 0.772282
vt 0.040997 0.722767
vt 0.040997 0.772283
vt 0.000179 0.722767
vt 0.000179 0.772283
vt 0.331835 0.238568
vt 0.367184 0.218159
vt 0.373307 0.241010
vt 0.348562 0.255296
vt 0.408002 0.218159
vt 0.443352 0.238568
vt 0.426624 0.255296
vt 0.401879 0.241010
vt 0.331835 0.350085
vt 0.311426 0.314736
vt 0.334276 0.308613
vt 0.348562 0.333358
vt 0.463761 0.273918
vt 0.463761 0.314736
vt 0.440910 0.308613
vt 0.440910 0.280040
vt 0.408002 0.370494
vt 0.367184 0.370494
vt 0.373307 0.347644
vt 0.401879 0.347644
vt 0.311426 0.273918
vt 0.334276 0.280040
vt 0.443352 0.350085
vt 0.426624 0.333358
vt 0.540006 0.420369
vt 0.511434 0.420369
vt 0.511434 0.370853
vt 0.540006 0.370853
vt 0.339998 0.420369
vt 0.311426 0.420369
vt 0.311426 0.370853
vt 0.339998 0.370853
vt 0.482861 0.420369
vt 0.454289 0.420369
vt 0.454289 0.370853
vt 0.482861 0.370853
vt 0.397143 0.420369
vt 0.368571 0.420369
vt 0.368571 0.370853
vt 0.397143 0.370853
vt 0.625724 0.420369
vt 0.597152 0.420369
vt 0.597152 0.370853
vt 0.625724 0.370853
vt 0.425716 0.420369
vt 0.425716 0.370853
vt 0.568579 0.420369
vt 0.568579 0.370853
vt 0.654297 0.420369
vt 0.654297 0.370853
vt 0.364743 0.474045
vt 0.379029 0.527362
vt 0.350457 0.527362
vt 0.403774 0.513076
vt 0.418060 0.488331
vt 0.418060 0.459759
vt 0.403774 0.435014
vt 0.379029 0.420728
vt 0.350457 0.420728
vt 0.325712 0.435014
vt 0.311426 0.459759
vt 0.311426 0.488331
vt 0.325712 0.513076
vn 0.000000 -1.000000 -0.000000
vn -0.000000 -0.653200 -0.757200
vn 0.378600 -0.653200 -0.655700
vn 0.757200 0.653200 0.000000
vn 0.655700 0.653200 -0.378600
vn 0.552300 0.770300 -0.318900
vn 0.637700 0.770300 0.000000
vn -0.000000 0.653200 -0.757200
vn 0.378600 0.653200 -0.655700
vn 0.655700 -0.653200 -0.378600
vn 0.378600 0.653200 0.655700
vn 0.655700 0.653200 0.378600
vn 0.552300 0.770300 0.318900
vn 0.318900 0.770300 0.552300
vn 0.757200 -0.653200 0.000000
vn -0.378600 0.653200 0.655700
vn 0.000000 0.653200 0.757200
vn 0.000000 0.770300 0.637700
vn -0.318900 0.770300 0.552300
vn 0.655700 -0.653200 0.378600
vn -0.757200 0.653200 0.000000
vn -0.655700 0.653200 0.378600
vn -0.552300 0.770300 0.318900
vn -0.637700 0.770300 0.000000
vn 0.378600 -0.653200 0.655700
vn -0.000000 0.770300 -0.637700
vn 0.318900 0.770300 -0.552300
vn 0.000000 -0.653200 0.757200
vn -0.378600 0.653200 -0.655700
vn -0.655700 0.653200 -0.378600
vn -0.552300 0.770300 -0.318900
vn -0.318900 0.770300 -0.552300
vn -0.378600 -0.653200 0.655700
vn -0.655700 -0.653200 0.378600
vn -0.757200 -0.653200 0.000000
vn -0.655700 -0.653200 -0.378600
vn -0.378600 -0.653200 -0.655700
vn 0.000000 1.000000 0.000000
usemtl None.001
s 1
f 1/1/1 2/2/2 3/3/3
f 4/4/4 5/5/5 6/6/6 7/7/7
f 2/8/2 8/9/8 9/10/9 3/11/3
f 1/1/1 3/3/3 10/12/10
f 11/13/11 12/14/12 13/15/13 14/16/14
f 3/11/3 9/10/9 5/17/5 10/18/10
f 1/1/1 10/12/10 15/19/15
f 16/20/16 17/21/17 18/22/18 19/23/19
f 10/18/10 5/17/5 4/24/4 15/25/15
f 1/1/1 15/19/15 20/26/20
f 21/27/21 22/28/22 23/29/23 24/30/24
f 15/25/15 4/24/4 12/31/12 20/32/20
f 1/1/1 20/26/20 25/33/25
f 9/34/9 8/35/8 26/36/26 27/37/27
f 20/32/20 12/31/12 11/38/11 25/39/25
f 1/1/1 25/33/25 28/40/28
f 29/41/29 30/42/30 31/43/31 32/44/32
f 25/39/25 11/38/11 17/45/17 28/46/28
f 1/1/1 28/40/28 33/47/33
f 8/35/8 29/41/29 32/44/32 26/36/26
f 28/46/28 17/45/17 16/48/16 33/49/33
f 1/1/1 33/47/33 34/50/34
f 5/5/5 9/34/9 27/37/27 6/6/6
f 33/49/33 16/48/16 22/51/22 34/52/34
f 1/1/1 34/50/34 35/53/35
f 12/14/12 4/4/4 7/7/7 13/15/13
f 34/52/34 22/51/22 21/54/21 35/55/35
f 1/1/1 35/53/35 36/56/36
f 17/21/17 11/13/11 14/16/14 18/22/18
f 35/57/35 21/58/21 30/59/30 36/60/36
f 1/1/1 36/56/36 37/61/37
f 22/28/22 16/20/16 19/23/19 23/29/23
f 36/60/36 30/59/30 29/62/29 37/63/37
f 1/1/1 37/61/37 2/2/2
f 30/42/30 21/27/21 24/30/24 31/43/31
f 37/63/37 29/62/29 8/9/8 2/8/2
f 24/64/24 23/65/23 38/66/22 39/67/21
f 6/68/6 27/69/27 40/70/9 41/71/5
f 19/72/19 18/73/18 42/74/17 43/75/16
f 14/76/14 13/77/13 44/78/12 45/79/11
f 31/80/31 24/81/24 39/82/21 46/83/30
f 7/84/7 6/68/6 41/71/5 47/85/4
f 26/86/26 32/87/32 48/88/29 49/89/8
f 23/65/23 19/72/19 43/75/16 38/66/22
f 27/69/27 26/86/26 49/89/8 40/70/9
f 18/73/18 14/76/14 45/79/11 42/74/17
f 32/87/32 31/80/31 46/83/30 48/88/29
f 13/77/13 7/84/7 47/85/4 44/78/12
f 41/90/5 40/91/9 50/92/27 51/93/6
f 43/94/16 42/95/17 52/96/18 53/97/19
f 45/98/11 44/99/12 54/100/13 55/101/14
f 46/102/30 39/103/21 56/104/24 57/105/31
f 47/106/4 41/90/5 51/93/6 58/107/7
f 49/108/8 48/109/29 59/110/32 60/111/26
f 38/112/22 43/94/16 53/97/19 61/113/23
f 40/91/9 49/108/8 60/111/26 50/92/27
f 42/95/17 45/98/11 55/101/14 52/96/18
f 48/109/29 46/102/30 57/105/31 59/110/32
f 44/99/12 47/106/4 58/107/7 54/100/13
f 39/103/21 38/112/22 61/113/23 56/104/24
f 51/114/6 50/115/27 62/116/9 63/117/5
f 53/118/19 52/119/18 64/120/17 65/121/16
f 55/122/14 54/123/13 66/124/12 67/125/11
f 57/126/31 56/127/24 68/128/21 69/129/30
f 58/130/7 51/114/6 63/117/5 70/131/4
f 60/132/26 59/133/32 71/134/29 72/135/8
f 61/136/23 53/118/19 65/121/16 73/137/22
f 50/115/27 60/132/26 72/135/8 62/116/9
f 52/119/18 55/122/14 67/125/11 64/120/17
f 59/133/32 57/126/31 69/129/30 71/134/29
f 54/123/13 58/130/7 70/131/4 66/124/12
f 56/138/24 61/136/23 73/137/22 68/139/21
f 65/140/16 64/141/17 74/142/18 75/143/19
f 67/144/11 66/145/12 76/146/13 77/147/14
f 69/148/30 68/149/21 78/150/24 79/151/31
f 70/152/4 63/153/5 80/154/6 81/155/7
f 72/156/8 71/157/29 82/158/32 83/159/26
f 73/160/22 65/140/16 75/143/19 84/161/23
f 62/162/9 72/156/8 83/159/26 85/163/27
f 64/141/17 67/144/11 77/147/14 74/142/18
f 71/157/29 69/148/30 79/151/31 82/158/32
f 66/145/12 70/152/4 81/155/7 76/146/13
f 68/149/21 73/160/22 84/161/23 78/150/24
f 63/153/5 62/162/9 85/163/27 80/154/6
f 77/164/14 76/165/13 86/166/12 87/167/11
f 79/168/31 78/169/24 88/170/21 89/171/30
f 81/172/7 80/173/6 90/174/5 91/175/4
f 83/176/26 82/177/32 92/178/29 93/179/8
f 84/180/23 75/181/19 94/182/16 95/183/22
f 85/184/27 83/176/26 93/179/8 96/185/9
f 74/186/18 77/164/14 87/167/11 97/187/17
f 82/177/32 79/168/31 89/171/30 92/178/29
f 76/165/13 81/172/7 91/175/4 86/166/12
f 78/188/24 84/180/23 95/183/22 88/189/21
f 80/173/6 85/184/27 96/185/9 90/174/5
f 75/181/19 74/186/18 97/187/17 94/182/16
f 98/190/38 96/191/9 93/192/8
f 98/190/38 90/193/5 96/191/9
f 98/190/38 91/194/4 90/193/5
f 98/190/38 86/195/12 91/194/4
f 98/190/38 87/196/11 86/195/12
f 98/190/38 97/197/17 87/196/11
f 98/190/38 94/198/16 97/197/17
f 98/190/38 95/199/22 94/198/16
f 98/190/38 88/200/21 95/199/22
f 98/190/38 89/201/30 88/200/21
f 98/190/38 92/202/29 89/201/30
f 98/190/38 93/192/8 92/202/29
