# Blender v2.76 (sub 0) OBJ File: ''
# www.blender.org
mtllib CattleHouse.mtl
o Cube.001_Cube.003
v -4.588859 1.301689 2.651738
v -4.588859 1.401689 2.651738
v -4.588859 1.301689 -2.651738
v -4.588859 1.401689 -2.651738
v -2.588859 1.301689 2.651738
v -2.588859 1.401689 2.651738
v -2.588859 1.301689 -2.651738
v -2.588859 1.401689 -2.651738
v -3.588859 1.901689 -2.651738
v -3.588859 1.301689 -2.651738
v -3.588859 1.901689 2.651738
v -3.588859 1.301689 2.651738
v -4.588859 1.401689 2.608427
v -4.588859 1.401689 2.512964
v -4.588859 1.401689 -2.512964
v -4.588859 1.401689 -2.608427
v -4.588859 1.301689 -2.608427
v -4.588859 1.301689 -2.512964
v -4.588859 1.301689 2.512964
v -4.588859 1.301689 2.608427
v -2.588859 1.401689 -2.608427
v -2.588859 1.401689 -2.512964
v -2.588859 1.401689 2.512964
v -2.588859 1.401689 2.608427
v -2.588859 1.301689 2.608427
v -2.588859 1.301689 2.512964
v -2.588859 1.301689 -2.512964
v -2.588859 1.301689 -2.608427
v -3.588859 1.901689 -2.608427
v -3.588859 1.901689 -2.512964
v -3.588859 1.901689 2.512964
v -3.588859 1.901689 2.608427
v -3.588859 1.301689 -2.608427
v -3.588859 1.301689 -2.512964
v -3.588859 1.301689 2.512964
v -3.588859 1.301689 2.608427
v -2.722192 1.468355 -2.651738
v -2.655525 1.435022 -2.651738
v -2.722192 1.301689 2.651738
v -2.655525 1.301689 2.651738
v -2.655525 1.301689 -2.651738
v -2.722192 1.301689 -2.651738
v -2.655525 1.435022 2.651738
v -2.722192 1.468355 2.651738
v -2.655525 1.435022 2.608427
v -2.722192 1.468355 2.608427
v -2.655525 1.435022 2.512964
v -2.722192 1.468355 2.512964
v -2.655525 1.435022 -2.512964
v -2.722192 1.468355 -2.512964
v -2.655525 1.435022 -2.608427
v -2.722192 1.468355 -2.608427
v -2.722192 1.301689 2.608427
v -2.655525 1.301689 2.608427
v -2.722192 1.301689 2.512964
v -2.655525 1.301689 2.512964
v -2.722192 1.301689 -2.512964
v -2.655525 1.301689 -2.512964
v -2.722192 1.301689 -2.608427
v -2.655525 1.301689 -2.608427
v -4.455525 1.301689 -2.651738
v -4.522192 1.301689 -2.651738
v -4.455525 1.468355 2.651738
v -4.522192 1.435022 2.651738
v -4.522192 1.435022 -2.651738
v -4.455525 1.468355 -2.651738
v -4.522192 1.301689 2.651738
v -4.455525 1.301689 2.651738
v -4.522192 1.301689 2.608427
v -4.455525 1.301689 2.608427
v -4.522192 1.301689 2.512964
v -4.455525 1.301689 2.512964
v -4.522192 1.301689 -2.512964
v -4.455525 1.301689 -2.512964
v -4.522192 1.301689 -2.608427
v -4.455525 1.301689 -2.608427
v -4.455525 1.468355 2.608427
v -4.522192 1.435022 2.608427
v -4.455525 1.468355 2.512964
v -4.522192 1.435022 2.512964
v -4.455525 1.468355 -2.512964
v -4.522192 1.435022 -2.512964
v -4.455525 1.468355 -2.608427
v -4.522192 1.435022 -2.608427
v -2.722192 0.001689 2.608427
v -2.655525 0.001689 2.608427
v -2.722192 0.001689 2.512964
v -2.655525 0.001689 2.512964
v -2.722192 0.001689 -2.512964
v -2.655525 0.001689 -2.512964
v -2.722192 0.001689 -2.608427
v -2.655525 0.001689 -2.608427
v -4.522192 0.001689 2.608427
v -4.455525 0.001689 2.608427
v -4.522192 0.001689 2.512964
v -4.455525 0.001689 2.512964
v -4.522192 0.001689 -2.512964
v -4.455525 0.001689 -2.512964
v -4.522192 0.001689 -2.608427
v -4.455525 0.001689 -2.608427
vt 0.925627 0.627678
vt 0.934057 0.627578
vt 0.934214 0.647053
vt 0.925677 0.647069
vt 0.716756 0.923624
vt 0.728895 0.929693
vt 0.728895 0.947902
vt 0.716756 0.947902
vt 0.015074 0.210457
vt 0.006633 0.210550
vt 0.006498 0.191038
vt 0.015046 0.191038
vt 0.012319 0.862932
vt 0.000182 0.856859
vt 0.000188 0.838650
vt 0.012327 0.838654
vt 0.927912 0.178419
vt 0.936545 0.178447
vt 0.936504 0.191837
vt 0.927940 0.191820
vt 0.925466 0.613141
vt 0.933832 0.613049
vt 0.927543 0.240210
vt 0.935741 0.240266
vt 0.935206 0.419571
vt 0.927194 0.419525
vt 0.925909 0.673811
vt 0.934357 0.673702
vt 0.936314 0.838015
vt 0.928103 0.838112
vt 0.340071 0.869115
vt 0.182236 0.947964
vt 0.182274 0.838713
vt 0.340082 0.838767
vt 0.389001 0.917554
vt 0.546809 0.838650
vt 0.546809 0.947902
vt 0.389001 0.947902
vt 0.004082 0.673078
vt 0.012524 0.673235
vt 0.008404 0.837765
vt 0.000182 0.837572
vt 0.031574 0.673977
vt 0.026513 0.838135
vt 0.906888 0.674590
vt 0.910016 0.838286
vt 0.007064 0.239395
vt 0.015250 0.239408
vt 0.013449 0.418708
vt 0.005435 0.418660
vt 0.033542 0.239731
vt 0.031096 0.418811
vt 0.909244 0.240438
vt 0.909552 0.419425
vt 0.004638 0.612350
vt 0.013016 0.612457
vt 0.012854 0.627001
vt 0.004408 0.626880
vt 0.031535 0.612535
vt 0.031434 0.627344
vt 0.906934 0.613188
vt 0.906984 0.628016
vt 0.006421 0.177688
vt 0.015032 0.177655
vt 0.034203 0.177574
vt 0.033932 0.191593
vt 0.908808 0.178347
vt 0.908962 0.192388
vt 0.936218 0.211382
vt 0.927772 0.211261
vt 0.909195 0.210918
vt 0.033739 0.210143
vt 0.012687 0.646444
vt 0.004122 0.646427
vt 0.031667 0.645876
vt 0.906825 0.646561
vt 0.914088 0.000182
vt 0.932192 0.000549
vt 0.928101 0.165033
vt 0.909056 0.164292
vt 0.987679 0.711044
vt 0.970297 0.711044
vt 0.970297 0.474332
vt 0.987679 0.474332
vt 0.030960 0.000195
vt 0.033819 0.163564
vt 0.012914 0.000343
vt 0.014885 0.164308
vt 0.952914 0.473969
vt 0.940775 0.473969
vt 0.940775 0.237257
vt 0.952914 0.237257
vt 0.004720 0.000429
vt 0.006449 0.164390
vt 0.927610 0.225803
vt 0.909094 0.225725
vt 0.033775 0.224977
vt 0.015226 0.225011
vt 0.006851 0.225099
vt 0.364354 0.856984
vt 0.352212 0.863050
vt 0.352221 0.838772
vt 0.364360 0.838776
vt 0.935988 0.225910
vt 0.940412 0.000740
vt 0.936542 0.165189
vt 0.704617 0.917554
vt 0.704617 0.947902
vt 0.925437 0.598755
vt 0.907159 0.598439
vt 0.031385 0.597821
vt 0.013083 0.598048
vt 0.004884 0.597992
vt 0.925709 0.660435
vt 0.906591 0.660575
vt 0.987679 0.236893
vt 0.970297 0.236893
vt 0.970297 0.000182
vt 0.987679 0.000182
vt 0.031821 0.659919
vt 0.012715 0.659847
vt 0.958158 0.711044
vt 0.940775 0.711044
vt 0.940775 0.474332
vt 0.958158 0.474332
vt 0.004080 0.659818
vt 0.364723 0.929693
vt 0.376862 0.923624
vt 0.376862 0.947902
vt 0.364723 0.947902
vt 0.934326 0.660378
vt 0.933617 0.598766
vt 0.024456 0.869006
vt 0.024466 0.838658
vt 0.764751 0.838650
vt 0.782133 0.838650
vt 0.782133 0.850789
vt 0.764751 0.850789
vt 0.782497 0.838650
vt 0.799879 0.838650
vt 0.799879 0.850789
vt 0.782497 0.850789
vt 0.729259 0.838650
vt 0.746641 0.838650
vt 0.746641 0.850789
vt 0.729259 0.850789
vt 0.747005 0.838650
vt 0.764387 0.838650
vt 0.764387 0.850789
vt 0.747005 0.850789
vt 0.958158 0.236893
vt 0.940775 0.236893
vt 0.940775 0.000182
vt 0.958158 0.000182
vt 0.952914 0.948119
vt 0.940775 0.948119
vt 0.940775 0.711407
vt 0.952914 0.711407
vt 0.982436 0.473969
vt 0.970297 0.473969
vt 0.970297 0.237257
vt 0.982436 0.237257
vt 0.999818 0.473969
vt 0.999818 0.237257
vt 0.999818 0.236893
vt 0.999818 0.000182
vt 0.970297 0.948119
vt 0.970297 0.711407
vt 0.999818 0.948119
vt 0.982436 0.948119
vt 0.982436 0.711407
vt 0.999818 0.711407
vt 0.999818 0.711044
vt 0.999818 0.474332
vn -1.000000 0.000000 0.000000
vn 0.000000 0.000000 -1.000000
vn 1.000000 0.000000 0.000000
vn 0.000000 0.000000 1.000000
vn 0.000000 -1.000000 0.000000
vn -0.447200 0.894400 0.000000
vn 0.447200 0.894400 0.000000
usemtl None
s off
f 16/1/1 4/2/1 3/3/1 17/4/1
f 38/5/2 8/6/2 7/7/2 41/8/2
f 24/9/3 6/10/3 5/11/3 25/12/3
f 64/13/4 2/14/4 1/15/4 67/16/4
f 60/17/5 41/18/5 7/19/5 28/20/5
f 84/21/6 65/22/6 4/2/6 16/1/6
f 52/23/7 37/24/7 9/25/7 29/26/7
f 76/27/5 61/28/5 10/29/5 33/30/5
f 44/31/4 11/32/4 12/33/4 39/34/4
f 66/35/2 9/36/2 10/37/2 61/38/2
f 68/39/5 70/40/5 36/41/5 12/42/5
f 70/40/5 72/43/5 35/44/5 36/41/5
f 72/43/5 74/45/5 34/46/5 35/44/5
f 74/45/5 76/27/5 33/30/5 34/46/5
f 44/47/7 46/48/7 32/49/7 11/50/7
f 46/48/7 48/51/7 31/52/7 32/49/7
f 48/51/7 50/53/7 30/54/7 31/52/7
f 50/53/7 52/23/7 29/26/7 30/54/7
f 64/55/6 78/56/6 13/57/6 2/58/6
f 78/56/6 80/59/6 14/60/6 13/57/6
f 80/59/6 82/61/6 15/62/6 14/60/6
f 82/61/6 84/21/6 16/1/6 15/62/6
f 40/63/5 54/64/5 25/12/5 5/11/5
f 54/64/5 56/65/5 26/66/5 25/12/5
f 56/65/5 58/67/5 27/68/5 26/66/5
f 58/67/5 60/17/5 28/20/5 27/68/5
f 8/69/3 21/70/3 28/20/3 7/19/3
f 21/70/3 22/71/3 27/68/3 28/20/3
f 22/71/3 23/72/3 26/66/3 27/68/3
f 23/72/3 24/9/3 25/12/3 26/66/3
f 2/58/1 13/57/1 20/73/1 1/74/1
f 13/57/1 14/60/1 19/75/1 20/73/1
f 14/60/1 15/62/1 18/76/1 19/75/1
f 15/62/1 16/1/1 17/4/1 18/76/1
f 34/77/5 33/78/5 59/79/5 57/80/5
f 56/81/3 54/82/3 86/83/3 88/84/3
f 35/85/5 34/77/5 57/80/5 55/86/5
f 55/86/5 57/80/5 58/67/5 56/65/5
f 36/87/5 35/85/5 55/86/5 53/88/5
f 58/89/4 57/90/4 89/91/4 90/92/4
f 12/93/5 36/87/5 53/88/5 39/94/5
f 39/94/5 53/88/5 54/64/5 40/63/5
f 22/71/7 21/70/7 51/95/7 49/96/7
f 49/96/7 51/95/7 52/23/7 50/53/7
f 23/72/7 22/71/7 49/96/7 47/97/7
f 47/97/7 49/96/7 50/53/7 48/51/7
f 24/9/7 23/72/7 47/97/7 45/98/7
f 45/98/7 47/97/7 48/51/7 46/48/7
f 6/10/7 24/9/7 45/98/7 43/99/7
f 43/99/7 45/98/7 46/48/7 44/47/7
f 6/100/4 43/101/4 40/102/4 5/103/4
f 43/101/4 44/31/4 39/34/4 40/102/4
f 21/70/7 8/69/7 38/104/7 51/95/7
f 51/95/7 38/104/7 37/24/7 52/23/7
f 33/78/5 10/105/5 42/106/5 59/79/5
f 59/79/5 42/106/5 41/18/5 60/17/5
f 9/36/2 37/107/2 42/108/2 10/37/2
f 37/107/2 38/5/2 41/8/2 42/108/2
f 30/54/6 29/26/6 83/109/6 81/110/6
f 81/110/6 83/109/6 84/21/6 82/61/6
f 31/52/6 30/54/6 81/110/6 79/111/6
f 79/111/6 81/110/6 82/61/6 80/59/6
f 32/49/6 31/52/6 79/111/6 77/112/6
f 77/112/6 79/111/6 80/59/6 78/56/6
f 11/50/6 32/49/6 77/112/6 63/113/6
f 63/113/6 77/112/6 78/56/6 64/55/6
f 18/76/5 17/4/5 75/114/5 73/115/5
f 73/116/1 75/117/1 99/118/1 97/119/1
f 19/75/5 18/76/5 73/115/5 71/120/5
f 71/120/5 73/115/5 74/45/5 72/43/5
f 20/73/5 19/75/5 71/120/5 69/121/5
f 53/122/1 55/123/1 87/124/1 85/125/1
f 1/74/5 20/73/5 69/121/5 67/126/5
f 67/126/5 69/121/5 70/40/5 68/39/5
f 4/127/2 65/128/2 62/129/2 3/130/2
f 65/128/2 66/35/2 61/38/2 62/129/2
f 17/4/5 3/3/5 62/131/5 75/114/5
f 75/114/5 62/131/5 61/28/5 76/27/5
f 29/26/6 9/25/6 66/132/6 83/109/6
f 83/109/6 66/132/6 65/22/6 84/21/6
f 11/32/4 63/133/4 68/134/4 12/33/4
f 63/133/4 64/13/4 67/16/4 68/134/4
f 89/135/5 91/136/5 92/137/5 90/138/5
f 85/139/5 87/140/5 88/141/5 86/142/5
f 97/143/5 99/144/5 100/145/5 98/146/5
f 93/147/5 95/148/5 96/149/5 94/150/5
f 76/151/3 74/152/3 98/153/3 100/154/3
f 71/155/2 72/156/2 96/157/2 95/158/2
f 59/159/2 60/160/2 92/161/2 91/162/2
f 57/163/1 59/159/1 91/162/1 89/164/1
f 74/165/4 73/116/4 97/119/4 98/166/4
f 54/82/4 53/122/4 85/125/4 86/83/4
f 69/167/1 71/155/1 95/158/1 93/168/1
f 60/160/3 58/89/3 90/92/3 92/161/3
f 72/169/3 70/170/3 94/171/3 96/172/3
f 75/117/2 76/151/2 100/154/2 99/118/2
f 55/173/2 56/81/2 88/84/2 87/174/2
f 70/170/4 69/167/4 93/168/4 94/171/4
