# Blender v2.76 (sub 0) OBJ File: ''
# www.blender.org
mtllib MineObj.mtl
o Cylinder
v 0.000000 -0.050000 -0.000000
v 0.000000 2.200000 -0.000000
v 0.000000 -0.050000 -1.402500
v 0.000000 2.200000 -0.981750
v 0.536714 -0.050000 -1.295741
v 0.375700 2.200000 -0.907019
v 0.991717 -0.050000 -0.991717
v 0.694202 2.200000 -0.694202
v 1.295741 -0.050000 -0.536714
v 0.907019 2.200000 -0.375700
v 1.402500 -0.050000 0.000000
v 0.981750 2.200000 0.000000
v 1.295741 -0.050000 0.536714
v 0.907019 2.200000 0.375699
v 0.991717 -0.050000 0.991717
v 0.694202 2.200000 0.694202
v 0.536714 -0.050000 1.295741
v 0.375700 2.200000 0.907019
v 0.000000 -0.050000 1.402500
v 0.000000 2.200000 0.981750
v -0.536713 -0.050000 1.295741
v -0.375699 2.200000 0.907019
v -0.991717 -0.050000 0.991718
v -0.694202 2.200000 0.694202
v -1.295741 -0.050000 0.536714
v -0.907019 2.200000 0.375700
v -1.402500 -0.050000 -0.000000
v -0.981750 2.200000 -0.000000
v -1.295741 -0.050000 -0.536714
v -0.907018 2.200000 -0.375700
v -0.991717 -0.050000 -0.991718
v -0.694202 2.200000 -0.694202
v -0.536713 -0.050000 -1.295741
v -0.375699 2.200000 -0.907019
vt 0.166114 0.545835
vt 0.199133 0.379839
vt 0.260144 0.405110
vt 0.448545 0.496036
vt 0.471658 0.612234
vt 0.425431 0.612234
vt 0.631650 0.370142
vt 0.592155 0.096752
vt 0.637640 0.088506
vt 0.696629 0.358362
vt 0.306839 0.451806
vt 0.514365 0.594544
vt 0.682417 0.077022
vt 0.760596 0.341956
vt 0.332111 0.512816
vt 0.547052 0.561857
vt 0.726256 0.062357
vt 0.823222 0.321006
vt 0.332111 0.578854
vt 0.564742 0.519149
vt 0.768930 0.044588
vt 0.884186 0.295622
vt 0.306839 0.639865
vt 0.564742 0.472923
vt 0.810222 0.023806
vt 0.943174 0.265934
vt 0.260144 0.686560
vt 0.547052 0.430216
vt 0.849917 0.000118
vt 0.999882 0.232094
vt 0.199133 0.711832
vt 0.514365 0.397529
vt 0.000118 0.232093
vt 0.150083 0.000118
vt 0.189778 0.023806
vt 0.056826 0.265933
vt 0.133096 0.711832
vt 0.471658 0.379839
vt 0.231070 0.044588
vt 0.115814 0.295622
vt 0.072085 0.686560
vt 0.425431 0.379839
vt 0.273744 0.062357
vt 0.176777 0.321006
vt 0.025389 0.639865
vt 0.382724 0.397529
vt 0.317583 0.077022
vt 0.239404 0.341956
vt 0.000118 0.578854
vt 0.350037 0.430216
vt 0.362360 0.088506
vt 0.303371 0.358362
vt 0.000118 0.512816
vt 0.332347 0.472923
vt 0.407845 0.096752
vt 0.368349 0.370142
vt 0.025390 0.451806
vt 0.332347 0.519149
vt 0.453804 0.101717
vt 0.434005 0.377234
vt 0.072085 0.405110
vt 0.350037 0.561857
vt 0.500000 0.103374
vt 0.500000 0.379603
vt 0.133096 0.379839
vt 0.382724 0.594544
vt 0.546197 0.101717
vt 0.565995 0.377234
vn 0.000000 -1.000000 0.000000
vn 0.000000 1.000000 0.000000
vn 0.191900 0.180400 -0.964700
vn 0.546500 0.180400 -0.817800
vn 0.817800 0.180400 -0.546500
vn 0.964700 0.180400 -0.191900
vn 0.964700 0.180400 0.191900
vn 0.817800 0.180400 0.546500
vn 0.546500 0.180400 0.817800
vn 0.191900 0.180400 0.964700
vn -0.191900 0.180400 0.964700
vn -0.546500 0.180400 0.817800
vn -0.817800 0.180400 0.546500
vn -0.964700 0.180400 0.191900
vn -0.964700 0.180400 -0.191900
vn -0.817800 0.180400 -0.546500
vn -0.546500 0.180400 -0.817800
vn -0.191900 0.180400 -0.964700
usemtl None
s off
f 1/1/1 3/2/1 5/3/1
f 2/4/2 6/5/2 4/6/2
f 3/7/3 4/8/3 6/9/3 5/10/3
f 1/1/1 5/3/1 7/11/1
f 2/4/2 8/12/2 6/5/2
f 5/10/4 6/9/4 8/13/4 7/14/4
f 1/1/1 7/11/1 9/15/1
f 2/4/2 10/16/2 8/12/2
f 7/14/5 8/13/5 10/17/5 9/18/5
f 1/1/1 9/15/1 11/19/1
f 2/4/2 12/20/2 10/16/2
f 9/18/6 10/17/6 12/21/6 11/22/6
f 1/1/1 11/19/1 13/23/1
f 2/4/2 14/24/2 12/20/2
f 11/22/7 12/21/7 14/25/7 13/26/7
f 1/1/1 13/23/1 15/27/1
f 2/4/2 16/28/2 14/24/2
f 13/26/8 14/25/8 16/29/8 15/30/8
f 1/1/1 15/27/1 17/31/1
f 2/4/2 18/32/2 16/28/2
f 15/33/9 16/34/9 18/35/9 17/36/9
f 1/1/1 17/31/1 19/37/1
f 2/4/2 20/38/2 18/32/2
f 17/36/10 18/35/10 20/39/10 19/40/10
f 1/1/1 19/37/1 21/41/1
f 2/4/2 22/42/2 20/38/2
f 19/40/11 20/39/11 22/43/11 21/44/11
f 1/1/1 21/41/1 23/45/1
f 2/4/2 24/46/2 22/42/2
f 21/44/12 22/43/12 24/47/12 23/48/12
f 1/1/1 23/45/1 25/49/1
f 2/4/2 26/50/2 24/46/2
f 23/48/13 24/47/13 26/51/13 25/52/13
f 1/1/1 25/49/1 27/53/1
f 2/4/2 28/54/2 26/50/2
f 25/52/14 26/51/14 28/55/14 27/56/14
f 1/1/1 27/53/1 29/57/1
f 2/4/2 30/58/2 28/54/2
f 27/56/15 28/55/15 30/59/15 29/60/15
f 1/1/1 29/57/1 31/61/1
f 2/4/2 32/62/2 30/58/2
f 29/60/16 30/59/16 32/63/16 31/64/16
f 1/1/1 31/61/1 33/65/1
f 2/4/2 34/66/2 32/62/2
f 31/64/17 32/63/17 34/67/17 33/68/17
f 1/1/1 33/65/1 3/2/1
f 2/4/2 4/6/2 34/66/2
f 33/68/18 34/67/18 4/8/18 3/7/18
