# Blender v2.76 (sub 0) OBJ File: ''
# www.blender.org
mtllib FenceObj.mtl
o Cube_Cube.002
v 4.292680 0.300000 1.026113
v 4.292680 0.500000 1.026113
v 4.292680 0.300000 0.826113
v 4.292680 0.500000 0.826113
v 4.492680 0.300000 1.026113
v 4.492680 0.500000 1.026113
v 4.492680 0.300000 0.826113
v 4.492680 0.500000 0.826113
v 4.292680 0.500000 -0.773887
v 4.292680 0.300000 -0.773887
v 4.492680 0.500000 -0.773887
v 4.492680 0.300000 -0.773887
v 4.292680 0.500000 -0.973887
v 4.292680 0.300000 -0.973887
v 4.492680 0.500000 -0.973887
v 4.492680 0.300000 -0.973887
v 4.292680 0.500000 -2.773887
v 4.292680 0.300000 -2.773887
v 4.492680 0.500000 -2.773887
v 4.492680 0.300000 -2.773887
v 4.292680 0.500000 -2.973887
v 4.292680 0.300000 -2.973887
v 4.492680 0.500000 -2.973887
v 4.492680 0.300000 -2.973887
v 2.492680 0.500000 -2.773887
v 2.492680 0.300000 -2.773887
v 2.492680 0.500000 -2.973887
v 2.492680 0.300000 -2.973887
v 2.292680 0.500000 -2.773887
v 2.292680 0.300000 -2.773887
v 2.292680 0.500000 -2.973887
v 2.292680 0.300000 -2.973887
v 0.492680 0.500000 -2.773887
v 0.492680 0.300000 -2.773887
v 0.492680 0.500000 -2.973887
v 0.492680 0.300000 -2.973887
v 0.292680 0.500000 -2.773887
v 0.292680 0.300000 -2.773887
v 0.292680 0.500000 -2.973887
v 0.292680 0.300000 -2.973887
v -1.507320 0.500000 -2.773887
v -1.507320 0.300000 -2.773887
v -1.507320 0.500000 -2.973887
v -1.507320 0.300000 -2.973887
v -1.707320 0.500000 -2.773887
v -1.707320 0.300000 -2.773887
v -1.707320 0.500000 -2.973887
v -1.707320 0.300000 -2.973887
v -3.507320 0.500000 -2.773887
v -3.507320 0.300000 -2.773887
v -3.507320 0.500000 -2.973887
v -3.507320 0.300000 -2.973887
v -3.707320 0.500000 -2.773887
v -3.707320 0.300000 -2.773887
v -3.707320 0.500000 -2.973887
v -3.707320 0.300000 -2.973887
v -4.707320 0.500000 -2.773887
v -4.707320 0.300000 -2.773887
v -4.707320 0.500000 -2.973887
v -4.707320 0.300000 -2.973887
v -4.907320 0.500000 -2.773887
v -4.907320 0.300000 -2.773887
v -4.907320 0.500000 -2.973887
v -4.907320 0.300000 -2.973887
v -4.707320 0.500000 -0.973887
v -4.707320 0.300000 -0.973887
v -4.907320 0.500000 -0.973887
v -4.907320 0.300000 -0.973887
v -4.707320 0.500000 -0.773887
v -4.707320 0.300000 -0.773887
v -4.907320 0.500000 -0.773887
v -4.907320 0.300000 -0.773887
v -4.707320 0.500000 1.026113
v -4.707320 0.300000 1.026113
v -4.907320 0.500000 1.026113
v -4.907320 0.300000 1.026113
v -4.707320 0.500000 1.226113
v -4.707320 0.300000 1.226113
v -4.907320 0.500000 1.226113
v -4.907320 0.300000 1.226113
v -4.707320 0.500000 2.693489
v -4.707320 0.300000 2.693489
v -4.907320 0.500000 2.693489
v -4.907320 0.300000 2.693489
v -4.707320 0.500000 2.893489
v -4.707320 0.300000 2.893489
v -4.907320 0.500000 2.893489
v -4.907320 0.300000 2.893489
v -2.907320 0.500000 2.693489
v -2.907320 0.300000 2.693489
v -2.907320 0.500000 2.893489
v -2.907320 0.300000 2.893489
v -2.707320 0.500000 2.693489
v -2.707320 0.300000 2.693489
v -2.707320 0.500000 2.893489
v -2.707320 0.300000 2.893489
v -0.907320 0.500000 2.693489
v -0.907320 0.300000 2.693489
v -0.907320 0.500000 2.893489
v -0.907320 0.300000 2.893489
v -0.707320 0.500000 2.693489
v -0.707320 0.300000 2.693489
v -0.707320 0.500000 2.893489
v -0.707320 0.300000 2.893489
v 1.092680 0.500000 2.693489
v 1.092680 0.300000 2.693489
v 1.092680 0.500000 2.893489
v 1.092680 0.300000 2.893489
v 1.292680 0.500000 2.693489
v 1.292680 0.300000 2.693489
v 1.292680 0.500000 2.893489
v 1.292680 0.300000 2.893489
v 3.092680 0.500000 2.693489
v 3.092680 0.300000 2.693489
v 3.092680 0.500000 2.893489
v 3.092680 0.300000 2.893489
v 1.092680 0.000000 2.693489
v 1.092680 0.000000 2.893489
v 1.292680 0.000000 2.693489
v 1.292680 0.000000 2.893489
v 4.492680 0.000000 -0.773887
v 4.292680 0.000000 -0.773887
v 4.492680 0.000000 -0.973887
v 4.292680 0.000000 -0.973887
v 4.492680 0.000000 -2.773887
v 4.292680 0.000000 -2.773887
v 4.492680 0.000000 -2.973887
v 4.292680 0.000000 -2.973887
v 2.492680 0.000000 -2.773887
v 2.492680 0.000000 -2.973887
v 2.292680 0.000000 -2.773887
v 2.292680 0.000000 -2.973887
v 0.492680 0.000000 -2.773887
v 0.492680 0.000000 -2.973887
v 0.292680 0.000000 -2.773887
v 0.292680 0.000000 -2.973887
v -1.507320 0.000000 -2.773887
v -1.507320 0.000000 -2.973887
v -1.707320 0.000000 -2.773887
v -1.707320 0.000000 -2.973887
v -3.507320 0.000000 -2.773887
v -3.507320 0.000000 -2.973887
v -3.707320 0.000000 -2.773887
v -3.707320 0.000000 -2.973887
v -4.707320 0.000000 -2.773887
v -4.707320 0.000000 -2.973887
v -4.907320 0.000000 -2.773887
v -4.907320 0.000000 -2.973887
v -4.707320 0.000000 -0.973887
v -4.907320 0.000000 -0.973887
v -4.707320 0.000000 -0.773887
v -4.907320 0.000000 -0.773887
v -4.707320 0.000000 1.026113
v -4.907320 0.000000 1.026113
v -4.707320 0.000000 1.226113
v -4.907320 0.000000 1.226113
v -4.707320 0.000000 2.693489
v -4.907320 0.000000 2.693489
v -4.707320 0.000000 2.893489
v -4.907320 0.000000 2.893489
v -2.907320 0.000000 2.693489
v -2.907320 0.000000 2.893489
v -2.707320 0.000000 2.693489
v -2.707320 0.000000 2.893489
v -0.907320 0.000000 2.693489
v -0.907320 0.000000 2.893489
v -0.707320 0.000000 2.693489
v -0.707320 0.000000 2.893489
vt 0.000223 0.334701
vt 0.022436 0.334708
vt 0.022428 0.356921
vt 0.000216 0.356913
vt 0.022444 0.312496
vt 0.000231 0.312488
vt 0.000239 0.290275
vt 0.022451 0.290283
vt 0.467574 0.290275
vt 0.445362 0.290275
vt 0.445362 0.268063
vt 0.467574 0.268063
vt 0.000246 0.268063
vt 0.022459 0.268070
vt 0.200145 0.312557
vt 0.200137 0.334770
vt 0.323593 0.424559
vt 0.301380 0.424559
vt 0.301380 0.391240
vt 0.323593 0.391240
vt 0.200130 0.356982
vt 0.200153 0.290344
vt 0.200160 0.268132
vt 0.222358 0.312565
vt 0.222365 0.290352
vt 0.422279 0.290421
vt 0.422271 0.312634
vt 0.222350 0.334777
vt 0.222342 0.356990
vt 0.133923 0.446772
vt 0.111710 0.446772
vt 0.111710 0.413453
vt 0.133923 0.413453
vt 0.422264 0.334846
vt 0.422256 0.357059
vt 0.222373 0.268139
vt 0.422287 0.268208
vt 0.066854 0.390809
vt 0.066854 0.413022
vt 0.044641 0.413022
vt 0.044641 0.390809
vt 0.201423 0.468985
vt 0.201423 0.446772
vt 0.223636 0.446772
vt 0.223636 0.468985
vt 0.022428 0.413022
vt 0.022428 0.390809
vt 0.999784 0.066854
vt 0.999784 0.089066
vt 0.799870 0.089067
vt 0.799870 0.066854
vt 0.156135 0.390809
vt 0.133923 0.390809
vt 0.133923 0.357490
vt 0.156135 0.357490
vt 0.999784 0.044641
vt 0.799870 0.044641
vt 0.999784 0.022428
vt 0.799870 0.022429
vt 0.999784 0.000216
vt 0.799870 0.000216
vt 0.777658 0.022429
vt 0.777658 0.044641
vt 0.577744 0.044641
vt 0.577744 0.022429
vt 0.777658 0.000216
vt 0.777658 0.066854
vt 0.346237 0.458310
vt 0.324024 0.458310
vt 0.324024 0.424991
vt 0.346237 0.424991
vt 0.577744 0.066854
vt 0.777658 0.089067
vt 0.577744 0.089067
vt 0.577744 0.000216
vt 0.555531 0.066854
vt 0.555531 0.089067
vt 0.355618 0.089067
vt 0.355618 0.066854
vt 0.555531 0.022429
vt 0.555531 0.000216
vt 0.555531 0.044641
vt 0.355618 0.022429
vt 0.355618 0.044642
vt 0.333405 0.044642
vt 0.333405 0.022429
vt 0.355618 0.000216
vt 0.333405 0.066854
vt 0.333405 0.089067
vt 0.133491 0.089067
vt 0.133491 0.066854
vt 0.000216 0.390809
vt 0.000216 0.357490
vt 0.022428 0.357490
vt 0.333405 0.000216
vt 0.133491 0.000216
vt 0.133491 0.022429
vt 0.111279 0.022429
vt 0.111279 0.000217
vt 0.133491 0.044642
vt 0.111279 0.044642
vt 0.000216 0.044642
vt 0.000216 0.022429
vt 0.111279 0.066854
vt 0.089497 0.446772
vt 0.089497 0.413453
vt 0.301380 0.390809
vt 0.279167 0.390809
vt 0.279167 0.357490
vt 0.301380 0.357490
vt 0.000216 0.066854
vt 0.111279 0.089067
vt 0.000216 0.089067
vt 0.000216 0.000217
vt 0.212098 0.379703
vt 0.234311 0.379703
vt 0.234311 0.401915
vt 0.212098 0.401915
vt 0.607440 0.178781
vt 0.607440 0.200993
vt 0.407526 0.200993
vt 0.407526 0.178781
vt 0.435950 0.402778
vt 0.458162 0.402778
vt 0.458162 0.424991
vt 0.435950 0.424991
vt 0.234311 0.424128
vt 0.212098 0.424128
vt 0.407526 0.223206
vt 0.407526 0.245419
vt 0.385313 0.245419
vt 0.385313 0.223206
vt 0.607440 0.223206
vt 0.607440 0.245419
vt 0.607440 0.267631
vt 0.407526 0.267631
vt 0.385313 0.267631
vt 0.185400 0.267631
vt 0.185400 0.245419
vt 0.412875 0.458310
vt 0.390662 0.458310
vt 0.390662 0.424991
vt 0.412875 0.424991
vt 0.385313 0.200993
vt 0.385313 0.178781
vt 0.185400 0.200993
vt 0.185400 0.223206
vt 0.163187 0.223206
vt 0.163187 0.200993
vt 0.185400 0.178781
vt 0.163187 0.245419
vt 0.163187 0.267631
vt 0.000216 0.267631
vt 0.000216 0.245419
vt 0.212098 0.446341
vt 0.178779 0.446341
vt 0.178779 0.424128
vt 0.163187 0.178781
vt 0.066854 0.480522
vt 0.044641 0.480522
vt 0.044641 0.447203
vt 0.066854 0.447203
vt 0.000216 0.200993
vt 0.000216 0.178781
vt 0.000216 0.223206
vt 0.156135 0.413022
vt 0.133923 0.413022
vt 0.000216 0.178349
vt 0.000216 0.156137
vt 0.200130 0.156137
vt 0.200130 0.178349
vt 0.458162 0.425422
vt 0.458162 0.447634
vt 0.435950 0.447634
vt 0.435950 0.425422
vt 0.111710 0.413022
vt 0.111710 0.390809
vt 0.256955 0.390809
vt 0.234742 0.390809
vt 0.234742 0.357490
vt 0.256955 0.357490
vt 0.000216 0.133924
vt 0.200129 0.133924
vt 0.000216 0.111711
vt 0.000216 0.089499
vt 0.200129 0.089499
vt 0.200129 0.111711
vt 0.222342 0.178349
vt 0.222342 0.156136
vt 0.422256 0.156136
vt 0.422256 0.178349
vt 0.222342 0.133924
vt 0.222342 0.111711
vt 0.422256 0.133924
vt 0.444469 0.133924
vt 0.444469 0.156136
vt 0.422256 0.111711
vt 0.222342 0.089498
vt 0.422256 0.089498
vt 0.444469 0.111711
vt 0.444469 0.089498
vt 0.644382 0.089498
vt 0.644382 0.111711
vt 0.044641 0.446772
vt 0.022428 0.446772
vt 0.022428 0.413453
vt 0.044641 0.413453
vt 0.444469 0.178349
vt 0.644382 0.156136
vt 0.644382 0.133924
vt 0.666595 0.133924
vt 0.666595 0.156136
vt 0.644382 0.178349
vt 0.666595 0.111711
vt 0.866508 0.111711
vt 0.866508 0.133924
vt 0.279167 0.458310
vt 0.256955 0.458310
vt 0.256955 0.424991
vt 0.279167 0.424991
vt 0.666595 0.178349
vt 0.444930 0.268063
vt 0.444930 0.290275
vt 0.422718 0.290275
vt 0.422718 0.268063
vt 0.666595 0.089498
vt 0.866508 0.089498
vt 0.866508 0.156136
vt 0.866508 0.178349
vt 0.413306 0.424991
vt 0.413306 0.402778
vt 0.435519 0.402778
vt 0.435519 0.424991
vt 0.301380 0.458310
vt 0.301380 0.424991
vt 0.323593 0.458310
vt 0.323593 0.424991
vt 0.234742 0.458310
vt 0.234742 0.424991
vt 0.445362 0.335563
vt 0.445362 0.313350
vt 0.467574 0.313350
vt 0.467574 0.335563
vt 0.178779 0.468985
vt 0.178779 0.446772
vt 0.200992 0.446772
vt 0.200992 0.468985
vt 0.435519 0.425422
vt 0.435519 0.447634
vt 0.413306 0.447634
vt 0.413306 0.425422
vt 0.458162 0.379703
vt 0.435950 0.379703
vt 0.435950 0.357490
vt 0.458162 0.357490
vt 0.435519 0.380134
vt 0.435519 0.402347
vt 0.413306 0.402347
vt 0.413306 0.380134
vt 0.435519 0.357490
vt 0.435519 0.379703
vt 0.413306 0.379703
vt 0.413306 0.357490
vt 0.458162 0.402347
vt 0.435950 0.402347
vt 0.435950 0.380134
vt 0.458162 0.380134
vt 0.435519 0.448066
vt 0.435519 0.470278
vt 0.413306 0.470278
vt 0.413306 0.448066
vt 0.458162 0.448066
vt 0.458162 0.470278
vt 0.435950 0.470278
vt 0.435950 0.448066
vt 0.467574 0.290707
vt 0.467574 0.312919
vt 0.445362 0.312919
vt 0.445362 0.290707
vt 0.422718 0.312919
vt 0.422718 0.290707
vt 0.444930 0.290707
vt 0.444930 0.312919
vt 0.422718 0.313350
vt 0.444930 0.313350
vt 0.444930 0.335563
vt 0.422718 0.335563
vt 0.368449 0.458310
vt 0.368449 0.424991
vt 0.022428 0.480522
vt 0.022428 0.447203
vt 0.178348 0.390809
vt 0.178348 0.357490
vt 0.089066 0.480522
vt 0.089066 0.447203
vt 0.390662 0.424559
vt 0.368449 0.424559
vt 0.368449 0.391240
vt 0.390662 0.391240
vt 0.000216 0.480522
vt 0.000216 0.447203
vt 0.111710 0.357490
vt 0.412875 0.390809
vt 0.390662 0.390809
vt 0.390662 0.357490
vt 0.412875 0.357490
vt 0.279167 0.424559
vt 0.279167 0.391240
vt 0.178348 0.480522
vt 0.156135 0.480522
vt 0.156135 0.447203
vt 0.178348 0.447203
vt 0.412875 0.424559
vt 0.412875 0.391240
vt 0.089066 0.446772
vt 0.066854 0.446772
vt 0.066854 0.413453
vt 0.089066 0.413453
vt 0.089497 0.390809
vt 0.089497 0.357490
vt 0.256955 0.424559
vt 0.234742 0.424559
vt 0.234742 0.391240
vt 0.256955 0.391240
vt 0.111710 0.480522
vt 0.089497 0.480522
vt 0.089497 0.447203
vt 0.111710 0.447203
vt 0.346237 0.424559
vt 0.346237 0.391240
vt 0.178779 0.401915
vt 0.178779 0.379703
vt 0.346237 0.390809
vt 0.324024 0.390809
vt 0.324024 0.357490
vt 0.346237 0.357490
vt 0.133923 0.480522
vt 0.133923 0.447203
vt 0.044641 0.357490
vt 0.066854 0.357490
vt 0.212098 0.357490
vt 0.178779 0.357490
vt 0.324024 0.424559
vt 0.324024 0.391240
vt 0.368449 0.390809
vt 0.368449 0.357490
vt 0.089066 0.390809
vt 0.089066 0.357490
vt 0.178348 0.446772
vt 0.156135 0.446772
vt 0.156135 0.413453
vt 0.178348 0.413453
vt 0.323593 0.390809
vt 0.323593 0.357490
vt 0.000216 0.446772
vt 0.000216 0.413453
vn -1.000000 0.000000 0.000000
vn 1.000000 0.000000 0.000000
vn 0.000000 0.000000 1.000000
vn 0.000000 -1.000000 0.000000
vn 0.000000 1.000000 0.000000
vn 0.000000 0.000000 -1.000000
usemtl None
s off
f 2/1/1 4/2/1 3/3/1 1/4/1
f 8/5/2 6/6/2 5/7/2 7/8/2
f 6/9/3 2/10/3 1/11/3 5/12/3
f 1/13/4 3/14/4 7/8/4 5/7/4
f 6/6/5 8/5/5 4/2/5 2/1/5
f 4/2/5 8/5/5 11/15/5 9/16/5
f 46/17/1 48/18/1 140/19/1 139/20/1
f 3/3/1 4/2/1 9/16/1 10/21/1
f 8/5/2 7/8/2 12/22/2 11/15/2
f 7/8/4 3/14/4 10/23/4 12/22/4
f 15/24/2 16/25/2 20/26/2 19/27/2
f 9/16/5 11/15/5 15/24/5 13/28/5
f 11/15/2 12/22/2 16/25/2 15/24/2
f 10/21/1 9/16/1 13/28/1 14/29/1
f 68/30/6 66/31/6 149/32/6 150/33/6
f 14/29/1 13/28/1 17/34/1 18/35/1
f 16/25/4 14/36/4 18/37/4 20/26/4
f 13/28/5 15/24/5 19/27/5 17/34/5
f 22/38/6 21/39/6 23/40/6 24/41/6
f 17/42/5 19/43/5 23/44/5 21/45/5
f 19/46/2 20/47/2 24/41/2 23/40/2
f 22/48/4 18/49/4 26/50/4 28/51/4
f 86/52/3 88/53/3 160/54/3 159/55/3
f 21/56/6 22/48/6 28/51/6 27/57/6
f 17/58/5 21/56/5 27/57/5 25/59/5
f 18/60/3 17/58/3 25/59/3 26/61/3
f 29/62/5 31/63/5 35/64/5 33/65/5
f 26/61/3 25/59/3 29/62/3 30/66/3
f 25/59/5 27/57/5 31/63/5 29/62/5
f 27/57/6 28/51/6 32/67/6 31/63/6
f 34/68/3 38/69/3 135/70/3 133/71/3
f 31/63/6 32/67/6 36/72/6 35/64/6
f 32/67/4 30/73/4 34/74/4 36/72/4
f 30/66/3 29/62/3 33/65/3 34/75/3
f 40/76/4 38/77/4 42/78/4 44/79/4
f 34/75/3 33/65/3 37/80/3 38/81/3
f 33/65/5 35/64/5 39/82/5 37/80/5
f 35/64/6 36/72/6 40/76/6 39/82/6
f 41/83/5 43/84/5 47/85/5 45/86/5
f 38/81/3 37/80/3 41/83/3 42/87/3
f 37/80/5 39/82/5 43/84/5 41/83/5
f 39/82/6 40/76/6 44/79/6 43/84/6
f 48/88/4 46/89/4 50/90/4 52/91/4
f 43/84/6 44/79/6 48/88/6 47/85/6
f 20/47/3 18/92/3 126/93/3 125/94/3
f 42/87/3 41/83/3 45/86/3 46/95/3
f 50/96/3 49/97/3 53/98/3 54/99/3
f 46/95/3 45/86/3 49/97/3 50/96/3
f 45/86/5 47/85/5 51/100/5 49/97/5
f 47/85/6 48/88/6 52/91/6 51/100/6
f 53/98/5 55/101/5 59/102/5 57/103/5
f 49/97/5 51/100/5 55/101/5 53/98/5
f 51/100/6 52/91/6 56/104/6 55/101/6
f 66/31/2 70/105/2 151/106/2 149/32/2
f 32/107/6 28/108/6 130/109/6 132/110/6
f 55/101/6 56/104/6 60/111/6 59/102/6
f 56/104/4 54/112/4 58/113/4 60/111/4
f 54/99/3 53/98/3 57/103/3 58/114/3
f 62/115/1 61/116/1 63/117/1 64/118/1
f 58/119/2 57/120/2 65/121/2 66/122/2
f 57/123/5 59/124/5 63/125/5 61/126/5
f 59/127/6 60/128/6 64/118/6 63/117/6
f 67/129/1 68/130/1 72/131/1 71/132/1
f 57/120/5 61/133/5 67/129/5 65/121/5
f 62/134/4 58/135/4 66/136/4 68/130/4
f 61/133/1 62/134/1 68/130/1 67/129/1
f 72/131/4 70/137/4 74/138/4 76/139/4
f 38/140/1 40/141/1 136/142/1 135/143/1
f 66/122/2 65/121/2 69/144/2 70/145/2
f 65/121/5 67/129/5 71/132/5 69/144/5
f 73/146/5 75/147/5 79/148/5 77/149/5
f 70/145/2 69/144/2 73/146/2 74/150/2
f 69/144/5 71/132/5 75/147/5 73/146/5
f 71/132/1 72/131/1 76/139/1 75/147/1
f 80/151/4 78/152/4 82/153/4 84/154/4
f 75/147/1 76/139/1 80/151/1 79/148/1
f 60/128/2 58/155/2 145/156/2 146/157/2
f 74/150/2 73/146/2 77/149/2 78/158/2
f 78/159/3 80/160/3 156/161/3 155/162/3
f 78/158/2 77/149/2 81/163/2 82/164/2
f 77/149/5 79/148/5 83/165/5 81/163/5
f 79/148/1 80/151/1 84/154/1 83/165/1
f 86/52/3 85/166/3 87/167/3 88/53/3
f 82/168/6 81/169/6 89/170/6 90/171/6
f 81/172/5 83/173/5 87/174/5 85/175/5
f 83/176/1 84/177/1 88/53/1 87/167/1
f 26/178/3 30/179/3 131/180/3 129/181/3
f 81/169/5 85/182/5 91/183/5 89/170/5
f 86/184/4 82/185/4 90/186/4 92/187/4
f 85/182/3 86/184/3 92/187/3 91/183/3
f 94/188/6 93/189/6 97/190/6 98/191/6
f 90/171/6 89/170/6 93/189/6 94/188/6
f 89/170/5 91/183/5 95/192/5 93/189/5
f 91/183/3 92/187/3 96/193/3 95/192/3
f 97/190/5 99/194/5 103/195/5 101/196/5
f 93/189/5 95/192/5 99/194/5 97/190/5
f 95/192/3 96/193/3 100/197/3 99/194/3
f 96/193/4 94/198/4 98/199/4 100/197/4
f 104/200/4 102/201/4 106/202/4 108/203/4
f 99/194/3 100/197/3 104/200/3 103/195/3
f 100/204/1 98/205/1 165/206/1 166/207/1
f 98/191/6 97/190/6 101/196/6 102/208/6
f 105/209/5 107/210/5 111/211/5 109/212/5
f 102/208/6 101/196/6 105/209/6 106/213/6
f 101/196/5 103/195/5 107/210/5 105/209/5
f 103/195/3 104/200/3 108/203/3 107/210/3
f 111/211/3 112/214/3 116/215/3 115/216/3
f 107/210/3 108/203/3 112/214/3 111/211/3
f 112/217/3 108/218/3 118/219/3 120/220/3
f 106/213/6 105/209/6 109/212/6 110/221/6
f 114/222/2 113/223/2 115/224/2 116/225/2
f 112/214/4 110/226/4 114/227/4 116/215/4
f 110/221/6 109/212/6 113/228/6 114/229/6
f 109/212/5 111/211/5 115/216/5 113/228/5
f 118/230/4 117/231/4 119/232/4 120/233/4
f 110/234/2 112/217/2 120/220/2 119/235/2
f 106/236/6 110/234/6 119/235/6 117/237/6
f 108/218/1 106/238/1 117/239/1 118/219/1
f 121/240/4 122/241/4 124/242/4 123/243/4
f 125/244/4 126/245/4 128/246/4 127/247/4
f 130/248/4 129/249/4 131/250/4 132/251/4
f 134/252/4 133/253/4 135/254/4 136/255/4
f 138/256/4 137/257/4 139/258/4 140/259/4
f 142/260/4 141/261/4 143/262/4 144/263/4
f 146/264/4 145/265/4 147/266/4 148/267/4
f 150/268/4 149/269/4 151/270/4 152/271/4
f 154/272/4 153/273/4 155/274/4 156/275/4
f 158/276/4 157/277/4 159/278/4 160/279/4
f 162/280/4 161/281/4 163/282/4 164/283/4
f 166/284/4 165/285/4 167/286/4 168/287/4
f 28/108/2 26/178/2 129/181/2 130/109/2
f 40/141/6 36/288/6 134/289/6 136/142/6
f 80/160/1 76/290/1 154/291/1 156/161/1
f 82/292/2 86/52/2 159/55/2 157/293/2
f 74/294/2 78/159/2 155/162/2 153/295/2
f 94/296/2 96/297/2 164/298/2 163/299/2
f 76/290/6 74/300/6 153/301/6 154/291/6
f 88/53/1 84/177/1 158/302/1 160/54/1
f 54/303/1 56/304/1 144/305/1 143/306/1
f 36/288/2 34/68/2 133/71/2 134/289/2
f 48/18/6 44/307/6 138/308/6 140/19/6
f 14/309/6 16/310/6 123/311/6 124/312/6
f 90/313/6 94/296/6 163/299/6 161/314/6
f 102/315/2 104/316/2 168/317/2 167/318/2
f 84/177/6 82/319/6 157/320/6 158/302/6
f 42/321/3 46/322/3 139/323/3 137/324/3
f 10/325/1 14/326/1 124/327/1 122/328/1
f 96/297/3 92/329/3 162/330/3 164/298/3
f 62/115/1 64/118/1 148/331/1 147/332/1
f 44/307/2 42/321/2 137/324/2 138/308/2
f 50/333/3 54/334/3 143/335/3 141/336/3
f 16/310/2 12/337/2 121/338/2 123/311/2
f 22/38/6 24/41/6 127/339/6 128/340/6
f 58/341/3 62/115/3 147/332/3 145/342/3
f 92/329/1 90/343/1 161/344/1 162/330/1
f 56/304/6 52/345/6 142/346/6 144/305/6
f 18/347/1 22/38/1 128/340/1 126/348/1
f 70/349/3 72/350/3 152/351/3 151/352/3
f 52/345/2 50/333/2 141/336/2 142/346/2
f 64/118/6 60/128/6 146/157/6 148/331/6
f 30/353/1 32/107/1 132/110/1 131/354/1
f 24/41/2 20/47/2 125/94/2 127/339/2
f 104/316/3 100/204/3 166/207/3 168/317/3
f 12/337/3 10/325/3 122/328/3 121/338/3
f 98/205/6 102/355/6 167/356/6 165/206/6
f 72/350/1 68/30/1 150/33/1 152/351/1
