# Blender v2.76 (sub 0) OBJ File: ''
# www.blender.org
mtllib Sawmill.mtl
o Cube_Cube.001
v -0.893949 -0.001985 0.999927
v -0.893949 0.761847 0.999927
v -0.893949 -0.001985 -1.481618
v -0.893949 0.761847 -1.481618
v 0.893949 -0.001985 0.999927
v 0.893949 0.761847 0.999927
v 0.893949 -0.001985 -1.481618
v 0.893949 0.761847 -1.481618
v -0.893949 -0.001985 1.642817
v -0.893949 -0.001985 1.642817
v 0.893949 -0.001985 1.642817
v 0.893949 -0.001985 1.642817
v -0.828195 0.761847 -1.481618
v -0.768996 0.761847 -1.481618
v 0.783227 0.761847 -1.481618
v 0.833023 0.761847 -1.481618
v 0.833023 -0.001985 -1.481618
v 0.783227 -0.001985 -1.481618
v -0.768996 -0.001985 -1.481618
v -0.828195 -0.001985 -1.481618
v 0.833023 0.761847 0.999927
v 0.783227 0.761847 0.999927
v -0.768996 0.761847 0.999927
v -0.828195 0.761847 0.999927
v -0.828195 -0.001985 0.999927
v -0.768996 -0.001985 0.999927
v 0.783227 -0.001985 0.999927
v 0.833023 -0.001985 0.999927
v 0.833023 -0.001985 1.642817
v 0.783227 -0.001985 1.642817
v -0.768996 -0.001985 1.642817
v -0.828195 -0.001985 1.642817
v -0.828195 -0.001985 1.642817
v -0.768996 -0.001985 1.642817
v 0.783227 -0.001985 1.642817
v 0.833023 -0.001985 1.642817
v -0.893949 0.761847 0.912935
v -0.893949 0.761847 0.864746
v -0.893949 0.761847 -1.410339
v -0.893949 0.761847 -1.442375
v -0.893949 -0.001985 -1.442375
v -0.893949 -0.001985 -1.410339
v -0.893949 -0.001985 0.864746
v -0.893949 -0.001985 0.912935
v 0.893949 0.761847 -1.442375
v 0.893949 0.761847 -1.410339
v 0.893949 0.761847 0.864746
v 0.893949 0.761847 0.912935
v 0.893949 -0.001985 0.912935
v 0.893949 -0.001985 0.864746
v 0.893949 -0.001985 -1.410339
v 0.893949 -0.001985 -1.442375
v 0.833023 0.761847 -1.442375
v 0.833023 0.761847 -1.410339
v 0.833023 0.761847 0.864746
v 0.833023 0.761847 0.912935
v 0.783227 0.761847 -1.442375
v 0.783227 0.761847 -1.410339
v 0.783227 0.761847 0.864746
v 0.783227 0.761847 0.912935
v -0.768996 0.761847 -1.442375
v -0.768996 0.761847 -1.410339
v -0.768996 0.761847 0.864746
v -0.768996 0.761847 0.912935
v -0.828195 0.761847 -1.442375
v -0.828195 0.761847 -1.410339
v -0.828195 0.761847 0.864746
v -0.828195 0.761847 0.912935
v -0.828195 -0.001985 -1.442375
v -0.828195 -0.001985 -1.410339
v -0.828195 -0.001985 0.864746
v -0.828195 -0.001985 0.912935
v -0.768996 -0.001985 -1.442375
v -0.768996 -0.001985 -1.410339
v -0.768996 -0.001985 0.864746
v -0.768996 -0.001985 0.912935
v 0.783227 -0.001985 -1.442375
v 0.783227 -0.001985 -1.410339
v 0.783227 -0.001985 0.864746
v 0.783227 -0.001985 0.912935
v 0.833023 -0.001985 -1.442375
v 0.833023 -0.001985 -1.410339
v 0.833023 -0.001985 0.864746
v 0.833023 -0.001985 0.912935
v 0.833023 1.525679 -1.442375
v 0.833023 1.525679 -1.410339
v 0.833023 1.525679 0.864746
v 0.833023 1.525679 0.912935
v 0.783227 1.525679 -1.442375
v 0.783227 1.525679 -1.410339
v 0.783227 1.525679 0.864746
v 0.783227 1.525679 0.912935
v -0.768996 1.525679 -1.442375
v -0.768996 1.525679 -1.410339
v -0.768996 1.525679 0.864746
v -0.768996 1.525679 0.912935
v -0.828195 1.525679 -1.442375
v -0.828195 1.525679 -1.410339
v -0.828195 1.525679 0.864746
v -0.828195 1.525679 0.912935
v 0.833023 1.678445 -1.442375
v 0.833023 1.678445 -1.410339
v 0.833023 1.678445 0.864746
v 0.833023 1.678445 0.912935
v 0.783227 1.708998 -1.442375
v 0.783227 1.708998 -1.410339
v 0.783227 1.708998 0.864746
v 0.783227 1.708998 0.912935
v -0.768996 1.708998 -1.442375
v -0.768996 1.708998 -1.410339
v -0.768996 1.708998 0.864746
v -0.768996 1.708998 0.912935
v -0.828195 1.678445 -1.442375
v -0.828195 1.678445 -1.410339
v -0.828195 1.678445 0.864746
v -0.828195 1.678445 0.912935
v 0.896234 1.525679 -1.477731
v 0.896234 1.525679 -1.445695
v 0.846439 1.525679 -1.477731
v 0.896234 1.678445 -1.477731
v 0.896234 1.678445 -1.445695
v 0.846439 1.678445 -1.477731
v -0.891407 1.525679 -1.477731
v -0.891407 1.525679 -1.445695
v -0.832208 1.525679 -1.477731
v -0.891407 1.678445 -1.477731
v -0.891407 1.678445 -1.445695
v -0.832208 1.678445 -1.477731
v -0.891407 1.525679 0.900101
v -0.891407 1.525679 0.948290
v -0.832208 1.525679 0.948290
v -0.891407 1.678445 0.900101
v -0.891407 1.678445 0.948290
v -0.832208 1.678445 0.948290
v 0.896234 1.525679 0.900101
v 0.896234 1.525679 0.948290
v 0.846439 1.525679 0.948290
v 0.896234 1.678445 0.900101
v 0.896234 1.678445 0.948290
v 0.846439 1.678445 0.948290
v 0.007115 1.525679 0.912935
v 0.007115 1.525679 -1.442375
v 0.007115 2.136744 0.912935
v 0.007115 1.525679 -1.477731
v 0.007115 2.136744 0.948290
v 0.007115 2.136744 -1.477731
v 0.007115 1.525679 0.864746
v 0.007115 1.525679 0.948290
v 0.007115 1.525679 -1.410339
v 0.007115 2.136744 0.864746
v 0.007115 2.136744 -1.442375
v 0.007115 2.136744 -1.410339
vt 0.564389 0.837879
vt 0.571565 0.837879
vt 0.571565 0.929311
vt 0.564389 0.929311
vt 0.575700 0.008151
vt 0.575663 0.001564
vt 0.671314 0.000359
vt 0.671391 0.006851
vt 0.561903 0.740284
vt 0.545995 0.740284
vt 0.545994 0.648853
vt 0.561902 0.648852
vt 0.154628 0.189281
vt 0.154629 0.196259
vt 0.000224 0.196290
vt 0.000223 0.189317
vt 0.678845 0.006760
vt 0.678774 0.000284
vt 0.571646 0.183502
vt 0.579078 0.183367
vt 0.579174 0.190324
vt 0.571758 0.190430
vt 0.475509 0.436806
vt 0.438291 0.436742
vt 0.438292 0.436092
vt 0.475510 0.436156
vt 0.428433 0.648855
vt 0.428451 0.646803
vt 0.117782 0.837879
vt 0.117782 0.929310
vt 0.000239 0.931362
vt 0.000221 0.929310
vt 0.125429 0.639512
vt 0.125429 0.646198
vt 0.000237 0.646361
vt 0.000228 0.639725
vt 0.124889 0.454135
vt 0.124878 0.461245
vt 0.000664 0.460935
vt 0.000681 0.453830
vt 0.124868 0.467649
vt 0.000648 0.467332
vt 0.125415 0.634045
vt 0.000221 0.634301
vt 0.624392 0.436738
vt 0.587168 0.436998
vt 0.587164 0.436348
vt 0.624388 0.436088
vt 0.549945 0.436934
vt 0.549946 0.436284
vt 0.512727 0.436870
vt 0.512728 0.436220
vt 0.568070 0.001533
vt 0.568083 0.008201
vt 0.575760 0.013550
vt 0.568165 0.013741
vt 0.578984 0.177077
vt 0.571552 0.177175
vt 0.681197 0.189085
vt 0.673778 0.189182
vt 0.673691 0.182228
vt 0.681107 0.182134
vt 0.673616 0.175969
vt 0.681028 0.175879
vt 0.671467 0.012155
vt 0.678910 0.012047
vt 0.156098 0.007371
vt 0.156118 0.013927
vt 0.000313 0.013413
vt 0.000333 0.006896
vt 0.156121 0.019287
vt 0.000297 0.018741
vt 0.154628 0.182994
vt 0.000221 0.183040
vt 0.142542 0.633834
vt 0.142598 0.639466
vt 0.152241 0.633471
vt 0.152346 0.639523
vt 0.543451 0.626470
vt 0.543578 0.633294
vt 0.684976 0.011974
vt 0.684922 0.006692
vt 0.141664 0.467706
vt 0.150987 0.467811
vt 0.545761 0.473100
vt 0.687077 0.175801
vt 0.141687 0.461257
vt 0.151039 0.461202
vt 0.545840 0.466210
vt 0.687159 0.182056
vt 0.141711 0.454150
vt 0.151042 0.454196
vt 0.545925 0.459320
vt 0.687251 0.189006
vt 0.171116 0.182970
vt 0.171135 0.189293
vt 0.508722 0.344096
vt 0.514587 0.344096
vt 0.514588 0.435645
vt 0.508722 0.435645
vt 0.180264 0.182886
vt 0.565453 0.177226
vt 0.565577 0.183674
vt 0.180291 0.189346
vt 0.491251 0.344096
vt 0.496351 0.344096
vt 0.496351 0.435645
vt 0.491251 0.435645
vt 0.172932 0.019385
vt 0.182486 0.019626
vt 0.561891 0.014025
vt 0.172944 0.013873
vt 0.537158 0.344096
vt 0.543023 0.344096
vt 0.543023 0.435645
vt 0.537158 0.435645
vt 0.182450 0.013698
vt 0.561722 0.008159
vt 0.438291 0.344096
vt 0.444353 0.344096
vt 0.444353 0.435645
vt 0.438291 0.435645
vt 0.172878 0.007225
vt 0.182321 0.007056
vt 0.561736 0.001501
vt 0.171151 0.196260
vt 0.180318 0.196201
vt 0.565730 0.190515
vt 0.142588 0.646281
vt 0.152345 0.646360
vt 0.543695 0.640125
vt 0.684855 0.000221
vt 0.999779 0.740276
vt 0.992603 0.740276
vt 0.992601 0.648845
vt 0.999777 0.648845
vt 0.986745 0.740276
vt 0.986743 0.648845
vt 0.570715 0.740284
vt 0.570714 0.648852
vt 0.133690 0.837879
vt 0.133690 0.929310
vt 0.142502 0.837879
vt 0.142502 0.929310
vt 0.558531 0.837879
vt 0.558531 0.929311
vt 0.412735 0.830354
vt 0.419209 0.830317
vt 0.426192 0.837436
vt 0.419838 0.837405
vt 0.016932 0.653800
vt 0.007541 0.653750
vt 0.000713 0.646872
vt 0.010050 0.646853
vt 0.414798 0.653760
vt 0.421725 0.646803
vt 0.425123 0.428102
vt 0.431176 0.428208
vt 0.437818 0.434962
vt 0.431803 0.434991
vt 0.520650 0.344096
vt 0.520650 0.435645
vt 0.521093 0.344096
vt 0.526192 0.344096
vt 0.526192 0.435645
vt 0.521093 0.435645
vt 0.502659 0.344096
vt 0.502659 0.435645
vt 0.468505 0.344096
vt 0.477328 0.344096
vt 0.477328 0.435645
vt 0.468505 0.435645
vt 0.532058 0.344096
vt 0.532058 0.435645
vt 0.453177 0.344096
vt 0.453177 0.435646
vt 0.496794 0.344096
vt 0.496793 0.435645
vt 0.482428 0.344096
vt 0.482428 0.435645
vt 0.459239 0.344096
vt 0.468062 0.344096
vt 0.468062 0.435646
vt 0.459239 0.435646
vt 0.007020 0.420718
vt 0.016054 0.420627
vt 0.016168 0.427815
vt 0.007062 0.427982
vt 0.425229 0.420907
vt 0.431224 0.420952
vt 0.008098 0.222006
vt 0.017379 0.222099
vt 0.017232 0.228871
vt 0.007981 0.228604
vt 0.423045 0.222074
vt 0.429212 0.222007
vt 0.429370 0.228636
vt 0.423192 0.228840
vt 0.010483 0.215157
vt 0.429884 0.215156
vt 0.425199 0.325336
vt 0.431157 0.325276
vt 0.001312 0.215321
vt 0.006798 0.325016
vt 0.000425 0.428392
vt 0.000221 0.324985
vt 0.420833 0.741811
vt 0.427521 0.741882
vt 0.426227 0.831889
vt 0.419310 0.824600
vt 0.006904 0.741792
vt 0.007471 0.660212
vt 0.016845 0.660444
vt 0.015996 0.741808
vt 0.414781 0.741739
vt 0.414900 0.660376
vt 0.421098 0.660265
vt 0.421073 0.653759
vt 0.427990 0.646831
vt 0.427958 0.653329
vt 0.000223 0.741779
vt 0.000714 0.653287
vt 0.009855 0.837203
vt 0.017054 0.830160
vt 0.530308 0.343654
vt 0.444353 0.288724
vt 0.444353 0.270414
vt 0.530308 0.270414
vt 0.015754 0.325061
vt 0.430033 0.196738
vt 0.435966 0.196732
vt 0.435960 0.215216
vt 0.621363 0.269972
vt 0.616263 0.269972
vt 0.616263 0.251662
vt 0.621363 0.251662
vt 0.435974 0.220613
vt 0.437736 0.453387
vt 0.431833 0.453361
vt 0.444353 0.269972
vt 0.438291 0.269972
vt 0.438291 0.251662
vt 0.444353 0.251662
vt 0.437848 0.428643
vt 0.010333 0.196763
vt 0.016919 0.824073
vt 0.412831 0.824300
vt 0.009354 0.453075
vt 0.000442 0.453089
vt 0.000432 0.434642
vt 0.009459 0.434712
vt 0.438291 0.270414
vt 0.438291 0.288724
vt 0.437742 0.325214
vt 0.001376 0.196732
vt 0.616263 0.270414
vt 0.621363 0.270414
vt 0.621363 0.288724
vt 0.616263 0.288724
vt 0.001354 0.220679
vt 0.007273 0.830050
vt 0.000221 0.837134
vt 0.007228 0.824389
vt 0.000241 0.831559
vt 0.530308 0.269972
vt 0.530308 0.196732
vn -1.000000 0.000000 0.000000
vn 0.000000 0.000000 -1.000000
vn 1.000000 0.000000 0.000000
vn 0.000000 0.643900 0.765100
vn 0.000000 -1.000000 0.000000
vn 0.000000 1.000000 0.000000
vn 0.000000 0.000000 1.000000
vn -0.458600 0.888600 0.000000
vn 0.523000 0.852300 0.000000
vn -0.482700 0.875800 0.000000
vn -0.480300 0.875600 -0.051000
vn 0.291500 0.950200 0.110600
vn -0.249800 0.967900 0.028300
vn -0.249800 0.967900 -0.028300
vn -0.480300 0.875600 0.051000
vn 0.291500 0.950200 -0.110600
vn 0.482700 0.875800 0.000000
vn 0.480300 0.875600 0.051000
vn 0.480300 0.875600 -0.051000
usemtl None
s off
f 40/1/1 4/2/1 3/3/1 41/4/1
f 16/5/2 8/6/2 7/7/2 17/8/2
f 48/9/3 6/10/3 5/11/3 49/12/3
f 24/13/4 2/14/4 10/15/4 32/16/4
f 81/17/5 17/8/5 7/7/5 52/18/5
f 65/19/6 13/20/6 4/21/6 40/22/6
f 32/23/7 10/24/7 9/25/7 33/26/7
f 5/11/3 6/10/3 11/27/3 12/28/3
f 2/29/1 1/30/1 9/31/1 10/32/1
f 28/33/5 5/34/5 12/35/5 36/36/5
f 1/37/5 25/38/5 33/39/5 9/40/5
f 25/38/5 26/41/5 34/42/5 33/39/5
f 26/41/5 27/43/5 35/44/5 34/42/5
f 27/43/5 28/33/5 36/36/5 35/44/5
f 11/45/7 29/46/7 36/47/7 12/48/7
f 29/46/7 30/49/7 35/50/7 36/47/7
f 30/49/7 31/51/7 34/52/7 35/50/7
f 31/51/7 32/23/7 33/26/7 34/52/7
f 45/53/6 8/6/6 16/5/6 53/54/6
f 53/54/6 16/5/6 15/55/6 57/56/6
f 57/56/6 15/55/6 14/57/6 61/58/6
f 61/58/6 14/57/6 13/20/6 65/19/6
f 41/59/5 3/60/5 20/61/5 69/62/5
f 69/62/5 20/61/5 19/63/5 73/64/5
f 73/64/5 19/63/5 18/65/5 77/66/5
f 77/66/5 18/65/5 17/8/5 81/17/5
f 6/67/4 21/68/4 29/69/4 11/70/4
f 21/68/4 22/71/4 30/72/4 29/69/4
f 22/71/4 23/73/4 31/74/4 30/72/4
f 23/73/4 24/13/4 32/16/4 31/74/4
f 4/21/2 13/20/2 20/61/2 3/60/2
f 13/20/2 14/57/2 19/63/2 20/61/2
f 14/57/2 15/55/2 18/65/2 19/63/2
f 15/55/2 16/5/2 17/8/2 18/65/2
f 27/43/5 80/75/5 84/76/5 28/33/5
f 80/75/5 79/77/5 83/78/5 84/76/5
f 79/77/5 78/79/5 82/80/5 83/78/5
f 78/81/5 77/66/5 81/17/5 82/82/5
f 26/41/5 76/83/5 80/75/5 27/43/5
f 76/83/5 75/84/5 79/77/5 80/75/5
f 75/84/5 74/85/5 78/79/5 79/77/5
f 74/86/5 73/64/5 77/66/5 78/81/5
f 25/38/5 72/87/5 76/83/5 26/41/5
f 72/87/5 71/88/5 75/84/5 76/83/5
f 71/88/5 70/89/5 74/85/5 75/84/5
f 70/90/5 69/62/5 73/64/5 74/86/5
f 1/37/5 44/91/5 72/87/5 25/38/5
f 44/91/5 43/92/5 71/88/5 72/87/5
f 43/92/5 42/93/5 70/89/5 71/88/5
f 42/94/5 41/59/5 69/62/5 70/90/5
f 23/73/6 64/95/6 68/96/6 24/13/6
f 65/97/1 66/98/1 98/99/1 97/100/1
f 63/101/6 62/102/6 66/103/6 67/104/6
f 55/105/2 59/106/2 91/107/2 87/108/2
f 22/71/6 60/109/6 64/95/6 23/73/6
f 60/109/6 59/110/6 63/101/6 64/95/6
f 59/110/6 58/111/6 62/102/6 63/101/6
f 58/111/6 57/56/6 61/58/6 62/102/6
f 21/68/6 56/112/6 60/109/6 22/71/6
f 57/113/1 58/114/1 90/115/1 89/116/1
f 55/117/6 54/118/6 58/111/6 59/110/6
f 63/119/2 67/120/2 99/121/2 95/122/2
f 6/67/6 48/123/6 56/112/6 21/68/6
f 48/123/6 47/124/6 55/117/6 56/112/6
f 47/124/6 46/125/6 54/118/6 55/117/6
f 46/125/6 45/53/6 53/54/6 54/118/6
f 24/13/6 68/96/6 37/126/6 2/14/6
f 68/96/6 67/104/6 38/127/6 37/126/6
f 67/104/6 66/103/6 39/128/6 38/127/6
f 66/103/6 65/19/6 40/22/6 39/128/6
f 28/33/5 84/76/5 49/129/5 5/34/5
f 84/76/5 83/78/5 50/130/5 49/129/5
f 83/78/5 82/80/5 51/131/5 50/130/5
f 82/82/5 81/17/5 52/18/5 51/132/5
f 8/133/3 45/134/3 52/135/3 7/136/3
f 45/134/3 46/137/3 51/138/3 52/135/3
f 46/137/3 47/139/3 50/140/3 51/138/3
f 47/139/3 48/9/3 49/12/3 50/140/3
f 2/29/1 37/141/1 44/142/1 1/30/1
f 37/141/1 38/143/1 43/144/1 44/142/1
f 38/143/1 39/145/1 42/146/1 43/144/1
f 39/145/1 40/1/1 41/4/1 42/146/1
f 86/147/5 85/148/5 117/149/5 118/150/5
f 99/151/5 100/152/5 130/153/5 129/154/5
f 98/155/5 99/151/5 129/154/5 124/156/5
f 114/157/6 113/158/6 126/159/6 127/160/6
f 66/98/7 62/161/7 94/162/7 98/99/7
f 58/163/7 54/164/7 86/165/7 90/166/7
f 61/167/2 65/97/2 97/100/2 93/168/2
f 59/169/1 60/170/1 92/171/1 91/172/1
f 53/173/2 57/113/2 89/116/2 85/174/2
f 67/120/1 68/175/1 100/176/1 99/121/1
f 54/164/3 53/173/3 85/174/3 86/165/3
f 62/177/3 61/167/3 93/168/3 94/178/3
f 56/179/3 55/105/3 87/108/3 88/180/3
f 64/181/3 63/182/3 95/183/3 96/184/3
f 68/175/7 64/181/7 96/184/7 100/176/7
f 60/170/7 56/179/7 88/180/7 92/171/7
f 112/185/8 111/186/8 115/187/8 116/188/8
f 110/189/8 109/190/8 113/158/8 114/157/8
f 104/191/9 103/192/9 107/193/9 108/194/9
f 102/195/9 101/196/9 105/197/9 106/198/9
f 138/199/6 121/200/6 102/195/6 103/192/6
f 152/201/10 151/202/10 109/190/10 110/189/10
f 103/192/6 104/191/6 139/203/6 138/199/6
f 143/204/11 112/185/11 134/205/11 145/206/11
f 142/207/5 144/208/5 119/209/5 89/210/5
f 141/211/5 96/212/5 95/213/5 147/214/5
f 149/215/5 94/216/5 93/217/5 142/207/5
f 93/217/5 97/218/5 123/219/5 125/220/5
f 141/211/5 148/221/5 131/222/5 96/212/5
f 86/147/5 118/150/5 135/223/5 87/224/5
f 145/225/7 134/226/7 131/227/7 148/228/7
f 143/204/10 150/229/10 111/186/10 112/185/10
f 118/230/3 117/231/3 120/232/3 121/200/3
f 117/233/2 119/234/2 122/235/2 120/236/2
f 105/197/12 101/196/12 120/232/12 122/237/12
f 101/196/6 102/195/6 121/200/6 120/232/6
f 107/193/9 103/192/9 102/195/9 106/198/9
f 85/148/5 89/210/5 119/209/5 117/149/5
f 123/238/1 124/239/1 127/160/1 126/159/1
f 125/240/2 123/241/2 126/242/2 128/243/2
f 113/158/13 109/190/13 128/244/13 126/159/13
f 121/200/3 138/199/3 135/245/3 118/230/3
f 97/218/5 98/155/5 124/156/5 123/219/5
f 91/246/5 90/247/5 86/147/5 87/224/5
f 129/248/1 130/249/1 133/250/1 132/251/1
f 130/252/7 131/227/7 134/226/7 133/253/7
f 112/185/14 116/188/14 133/250/14 134/205/14
f 146/254/15 128/244/15 109/190/15 151/202/15
f 100/152/5 96/212/5 131/222/5 130/153/5
f 116/188/6 115/187/6 132/251/6 133/250/6
f 136/255/3 135/245/3 138/199/3 139/203/3
f 137/256/7 136/257/7 139/258/7 140/259/7
f 104/191/16 108/194/16 140/260/16 139/203/16
f 88/261/5 87/224/5 135/223/5 136/262/5
f 92/263/5 88/261/5 136/262/5 137/264/5
f 144/265/2 146/266/2 122/235/2 119/234/2
f 99/151/5 98/155/5 94/216/5 95/213/5
f 129/248/1 132/251/1 127/160/1 124/239/1
f 114/157/6 127/160/6 132/251/6 115/187/6
f 115/187/8 111/186/8 110/189/8 114/157/8
f 150/229/17 107/193/17 106/198/17 152/201/17
f 147/214/5 149/215/5 90/247/5 91/246/5
f 95/213/5 94/216/5 149/215/5 147/214/5
f 111/186/10 150/229/10 152/201/10 110/189/10
f 125/240/2 128/243/2 146/266/2 144/265/2
f 122/237/18 146/254/18 151/202/18 105/197/18
f 108/194/17 107/193/17 150/229/17 143/204/17
f 140/259/7 145/225/7 148/228/7 137/256/7
f 92/263/5 137/264/5 148/221/5 141/211/5
f 90/247/5 149/215/5 142/207/5 89/210/5
f 92/263/5 141/211/5 147/214/5 91/246/5
f 93/217/5 125/220/5 144/208/5 142/207/5
f 108/194/19 143/204/19 145/206/19 140/260/19
f 106/198/17 105/197/17 151/202/17 152/201/17
